<svg width="1024" height="1365" xmlns="http://www.w3.org/2000/svg" xmlns:xlink="http://www.w3.org/1999/xlink" overflow="hidden"><defs><clipPath id="clip0"><rect x="0" y="0" width="1024" height="1365"/></clipPath><clipPath id="clip1"><rect x="813" y="24" width="182" height="321"/></clipPath><clipPath id="clip2"><rect x="523" y="24" width="291" height="321"/></clipPath><clipPath id="clip3"><rect x="319" y="24" width="205" height="321"/></clipPath><clipPath id="clip4"><rect x="29" y="24" width="291" height="321"/></clipPath><clipPath id="clip5"><rect x="813" y="117" width="182" height="321"/></clipPath><clipPath id="clip6"><rect x="523" y="117" width="291" height="321"/></clipPath><clipPath id="clip7"><rect x="319" y="117" width="205" height="321"/></clipPath><clipPath id="clip8"><rect x="29" y="117" width="291" height="321"/></clipPath><clipPath id="clip9"><rect x="813" y="214" width="182" height="321"/></clipPath><clipPath id="clip10"><rect x="523" y="214" width="291" height="321"/></clipPath><clipPath id="clip11"><rect x="319" y="214" width="205" height="321"/></clipPath><clipPath id="clip12"><rect x="29" y="214" width="291" height="321"/></clipPath><clipPath id="clip13"><rect x="813" y="311" width="182" height="321"/></clipPath><clipPath id="clip14"><rect x="523" y="311" width="291" height="321"/></clipPath><clipPath id="clip15"><rect x="319" y="311" width="205" height="321"/></clipPath><clipPath id="clip16"><rect x="29" y="311" width="291" height="321"/></clipPath><clipPath id="clip17"><rect x="813" y="408" width="182" height="321"/></clipPath><clipPath id="clip18"><rect x="523" y="408" width="291" height="321"/></clipPath><clipPath id="clip19"><rect x="319" y="408" width="205" height="321"/></clipPath><clipPath id="clip20"><rect x="29" y="408" width="291" height="321"/></clipPath><clipPath id="clip21"><rect x="813" y="505" width="182" height="321"/></clipPath><clipPath id="clip22"><rect x="523" y="505" width="291" height="321"/></clipPath><clipPath id="clip23"><rect x="319" y="505" width="205" height="321"/></clipPath><clipPath id="clip24"><rect x="29" y="505" width="291" height="321"/></clipPath><clipPath id="clip25"><rect x="813" y="601" width="182" height="322"/></clipPath><clipPath id="clip26"><rect x="523" y="601" width="291" height="322"/></clipPath><clipPath id="clip27"><rect x="319" y="601" width="205" height="322"/></clipPath><clipPath id="clip28"><rect x="29" y="601" width="291" height="322"/></clipPath><clipPath id="clip29"><rect x="29" y="601" width="291" height="322"/></clipPath><clipPath id="clip30"><rect x="813" y="698" width="182" height="322"/></clipPath><clipPath id="clip31"><rect x="523" y="698" width="291" height="322"/></clipPath><clipPath id="clip32"><rect x="319" y="698" width="205" height="322"/></clipPath><clipPath id="clip33"><rect x="29" y="698" width="291" height="322"/></clipPath><clipPath id="clip34"><rect x="813" y="627" width="182" height="657"/></clipPath><clipPath id="clip35"><rect x="813" y="627" width="182" height="657"/></clipPath><clipPath id="clip36"><rect x="523" y="795" width="291" height="322"/></clipPath><clipPath id="clip37"><rect x="319" y="795" width="205" height="322"/></clipPath><clipPath id="clip38"><rect x="29" y="795" width="291" height="322"/></clipPath><clipPath id="clip39"><rect x="813" y="892" width="182" height="322"/></clipPath><clipPath id="clip40"><rect x="523" y="892" width="291" height="322"/></clipPath><clipPath id="clip41"><rect x="319" y="892" width="205" height="322"/></clipPath><clipPath id="clip42"><rect x="29" y="892" width="291" height="322"/></clipPath><clipPath id="clip43"><rect x="813" y="989" width="182" height="321"/></clipPath><clipPath id="clip44"><rect x="523" y="989" width="291" height="321"/></clipPath><clipPath id="clip45"><rect x="319" y="989" width="205" height="321"/></clipPath><clipPath id="clip46"><rect x="29" y="989" width="291" height="321"/></clipPath><clipPath id="clip47"><rect x="813" y="1086" width="182" height="321"/></clipPath><clipPath id="clip48"><rect x="523" y="1086" width="291" height="321"/></clipPath><clipPath id="clip49"><rect x="319" y="1086" width="205" height="321"/></clipPath><clipPath id="clip50"><rect x="29" y="1086" width="291" height="321"/></clipPath></defs><g clip-path="url(#clip0)"><rect x="0" y="0" width="1024" height="1364.67" fill="#FFFFFF"/><path d="M813.176 138.943 813.176 1295.97" stroke="#000000" stroke-width="1.33333" stroke-linejoin="round" stroke-miterlimit="10" fill="none" fill-rule="evenodd"/><path d="M523.986 138.943 523.986 1295.97" stroke="#000000" stroke-width="1.33333" stroke-linejoin="round" stroke-miterlimit="10" fill="none" fill-rule="evenodd"/><path d="M320 138.943 320 1295.97" stroke="#000000" stroke-width="1.33333" stroke-linejoin="round" stroke-miterlimit="10" fill="none" fill-rule="evenodd"/><path d="M29.2942 229.338 994.706 229.338" stroke="#000000" stroke-width="1.33333" stroke-linejoin="round" stroke-miterlimit="10" fill="none" fill-rule="evenodd"/><path d="M29.2942 326.244 994.706 326.244" stroke="#000000" stroke-width="1.33333" stroke-linejoin="round" stroke-miterlimit="10" fill="none" fill-rule="evenodd"/><path d="M29.2942 423.149 994.706 423.149" stroke="#000000" stroke-width="1.33333" stroke-linejoin="round" stroke-miterlimit="10" fill="none" fill-rule="evenodd"/><path d="M29.2942 520.055 994.706 520.055" stroke="#000000" stroke-width="1.33333" stroke-linejoin="round" stroke-miterlimit="10" fill="none" fill-rule="evenodd"/><path d="M29.2942 616.961 994.706 616.961" stroke="#000000" stroke-width="1.33333" stroke-linejoin="round" stroke-miterlimit="10" fill="none" fill-rule="evenodd"/><path d="M29.2942 713.867 994.706 713.867" stroke="#000000" stroke-width="1.33333" stroke-linejoin="round" stroke-miterlimit="10" fill="none" fill-rule="evenodd"/><path d="M29.2942 810.773 994.706 810.773" stroke="#000000" stroke-width="1.33333" stroke-linejoin="round" stroke-miterlimit="10" fill="none" fill-rule="evenodd"/><path d="M29.2942 907.678 994.706 907.678" stroke="#000000" stroke-width="1.33333" stroke-linejoin="round" stroke-miterlimit="10" fill="none" fill-rule="evenodd"/><path d="M29.2942 1004.58 994.706 1004.58" stroke="#000000" stroke-width="1.33333" stroke-linejoin="round" stroke-miterlimit="10" fill="none" fill-rule="evenodd"/><path d="M29.2942 1101.49 994.706 1101.49" stroke="#000000" stroke-width="1.33333" stroke-linejoin="round" stroke-miterlimit="10" fill="none" fill-rule="evenodd"/><path d="M29.2942 1198.4 994.706 1198.4" stroke="#000000" stroke-width="1.33333" stroke-linejoin="round" stroke-miterlimit="10" fill="none" fill-rule="evenodd"/><path d="M994.039 138.943 994.039 1295.97" stroke="#000000" stroke-width="1.33333" stroke-linejoin="round" stroke-miterlimit="10" fill="none" fill-rule="evenodd"/><path d="M29.9608 138.943 29.9608 1295.97" stroke="#000000" stroke-width="1.33333" stroke-linejoin="round" stroke-miterlimit="10" fill="none" fill-rule="evenodd"/><path d="M29.2942 139.61 994.706 139.61" stroke="#000000" stroke-width="1.33333" stroke-linejoin="round" stroke-miterlimit="10" fill="none" fill-rule="evenodd"/><path d="M29.2942 1295.3 994.706 1295.3" stroke="#000000" stroke-width="1.33333" stroke-linejoin="round" stroke-miterlimit="10" fill="none" fill-rule="evenodd"/><g clip-path="url(#clip1)"><text font-family="Calibri,Calibri_MSFontService,sans-serif" font-weight="400" font-size="37" direction="rtl" writing-mode="rl-tb" transform="matrix(1 0 0 0.999756 920.897 198)" x="66">خضر</text></g><g clip-path="url(#clip2)"><text font-family="Calibri,Calibri_MSFontService,sans-serif" font-weight="700" font-size="37" transform="matrix(1 0 0 0.999756 531.047 198)">un légume </text></g><g clip-path="url(#clip3)"><text font-family="Calibri,Calibri_MSFontService,sans-serif" font-weight="400" font-size="37" direction="rtl" writing-mode="rl-tb" transform="matrix(1 0 0 0.999756 441.387 198)" x="75.3333">فاكهة </text></g><g clip-path="url(#clip4)"><text font-family="Calibri,Calibri_MSFontService,sans-serif" font-weight="700" font-size="37" transform="matrix(1 0 0 0.999756 37.1882 198)">un fruit</text></g><g clip-path="url(#clip5)"><text font-family="Calibri,Calibri_MSFontService,sans-serif" font-weight="400" font-size="37" direction="rtl" writing-mode="rl-tb" transform="matrix(1 0 0 0.999756 949.897 291)" x="37">بلد</text></g><g clip-path="url(#clip6)"><text font-family="Calibri,Calibri_MSFontService,sans-serif" font-weight="700" font-size="37" transform="matrix(1 0 0 0.999756 531.047 291)">un pays</text></g><g clip-path="url(#clip7)"><text font-family="Calibri,Calibri_MSFontService,sans-serif" font-weight="400" font-size="37" direction="rtl" writing-mode="rl-tb" transform="matrix(1 0 0 0.999756 460.054 291)" x="56.6667">غذاء</text></g><g clip-path="url(#clip8)"><text font-family="Calibri,Calibri_MSFontService,sans-serif" font-weight="700" font-size="37" transform="matrix(1 0 0 0.999756 37.1882 291)">un aliment </text></g><g clip-path="url(#clip9)"><text font-family="Calibri,Calibri_MSFontService,sans-serif" font-weight="400" font-size="37" direction="rtl" writing-mode="rl-tb" transform="matrix(1 0 0 0.999756 875.231 388)" x="111.667">سندوتش</text></g><g clip-path="url(#clip10)"><text font-family="Calibri,Calibri_MSFontService,sans-serif" font-weight="700" font-size="37" transform="matrix(1 0 0 0.999756 531.047 388)">un sandwich </text></g><g clip-path="url(#clip11)"><text font-family="Calibri,Calibri_MSFontService,sans-serif" font-weight="400" font-size="37" direction="rtl" writing-mode="rl-tb" transform="matrix(1 0 0 0.999756 458.221 388)" x="58.5">منتج</text></g><g clip-path="url(#clip12)"><text font-family="Calibri,Calibri_MSFontService,sans-serif" font-weight="700" font-size="37" transform="matrix(1 0 0 0.999756 37.1882 388)">un produit</text></g><g clip-path="url(#clip13)"><text font-family="Calibri,Calibri_MSFontService,sans-serif" font-weight="400" font-size="37" direction="rtl" writing-mode="rl-tb" transform="matrix(1 0 0 0.999756 875.231 485)" x="111.667">سندوتش</text></g><g clip-path="url(#clip14)"><text font-family="Calibri,Calibri_MSFontService,sans-serif" font-weight="700" font-size="37" transform="matrix(1 0 0 0.999756 531.047 485)">un casse</text></g><text font-family="Calibri,Calibri_MSFontService,sans-serif" font-weight="700" font-size="37" transform="matrix(1 0 0 0.999756 662.214 485)">-croûte </text><g clip-path="url(#clip15)"><text font-family="Calibri,Calibri_MSFontService,sans-serif" font-weight="400" font-size="37" direction="rtl" writing-mode="rl-tb" transform="matrix(1 0 0 0.999756 441.721 485)" x="75">السكر</text></g><g clip-path="url(#clip16)"><text font-family="Calibri,Calibri_MSFontService,sans-serif" font-weight="700" font-size="37" transform="matrix(1 0 0 0.999756 37.1882 485)">le sucre</text></g><g clip-path="url(#clip17)"><text font-family="Calibri,Calibri_MSFontService,sans-serif" font-weight="400" font-size="37" direction="rtl" writing-mode="rl-tb" transform="matrix(1 0 0 0.999756 874.564 581)" x="112.333">كرواسون</text></g><g clip-path="url(#clip18)"><text font-family="Calibri,Calibri_MSFontService,sans-serif" font-weight="700" font-size="37" transform="matrix(1 0 0 0.999756 531.047 581)">un croissant</text></g><g clip-path="url(#clip19)"><text font-family="Calibri,Calibri_MSFontService,sans-serif" font-weight="400" font-size="37" direction="rtl" writing-mode="rl-tb" transform="matrix(1 0 0 0.999756 453.054 581)" x="63.6667">الملح</text></g><g clip-path="url(#clip20)"><text font-family="Calibri,Calibri_MSFontService,sans-serif" font-weight="700" font-size="37" transform="matrix(1 0 0 0.999756 37.1882 581)">le sel</text></g><g clip-path="url(#clip21)"><text font-family="Calibri,Calibri_MSFontService,sans-serif" font-weight="400" font-size="37" direction="rtl" writing-mode="rl-tb" transform="matrix(1 0 0 0.999756 924.564 678)" x="62.3333">سوق</text></g><g clip-path="url(#clip22)"><text font-family="Calibri,Calibri_MSFontService,sans-serif" font-weight="700" font-size="37" transform="matrix(1 0 0 0.999756 531.047 678)">un marché </text></g><g clip-path="url(#clip23)"><text font-family="Calibri,Calibri_MSFontService,sans-serif" font-weight="400" font-size="37" direction="rtl" writing-mode="rl-tb" transform="matrix(1 0 0 0.999756 436.387 678)" x="80.3333">الوجبه</text></g><g clip-path="url(#clip24)"><text font-family="Calibri,Calibri_MSFontService,sans-serif" font-weight="700" font-size="37" transform="matrix(1 0 0 0.999756 37.1882 678)">un repas</text></g><g clip-path="url(#clip25)"><text font-family="Calibri,Calibri_MSFontService,sans-serif" font-weight="400" font-size="37" direction="rtl" writing-mode="rl-tb" transform="matrix(1 0 0 0.999756 923.564 775)" x="63.3333">كوب</text></g><g clip-path="url(#clip26)"><text font-family="Calibri,Calibri_MSFontService,sans-serif" font-weight="700" font-size="37" transform="matrix(1 0 0 0.999756 531.047 775)">un verre</text></g><g clip-path="url(#clip27)"><text font-family="Calibri,Calibri_MSFontService,sans-serif" font-weight="400" font-size="37" direction="rtl" writing-mode="rl-tb" transform="matrix(1 0 0 0.999756 428.387 775)" x="88.3333">الافطار</text></g><g clip-path="url(#clip28)"><text font-family="Calibri,Calibri_MSFontService,sans-serif" font-weight="700" font-size="37" transform="matrix(1 0 0 0.999756 37.1882 775)">le petit</text></g><text font-family="Calibri,Calibri_MSFontService,sans-serif" font-weight="700" font-size="37" transform="matrix(1 0 0 0.999756 147.688 775)">-</text><g clip-path="url(#clip29)"><text font-family="Calibri,Calibri_MSFontService,sans-serif" font-weight="700" font-size="37" transform="matrix(1 0 0 0.999756 159.188 775)">déjeuner </text></g><g clip-path="url(#clip30)"><text font-family="Calibri,Calibri_MSFontService,sans-serif" font-weight="400" font-size="37" direction="rtl" writing-mode="rl-tb" transform="matrix(1 0 0 0.999756 907.897 872)" x="79">حبوب</text></g><g clip-path="url(#clip31)"><text font-family="Calibri,Calibri_MSFontService,sans-serif" font-weight="700" font-size="37" transform="matrix(1 0 0 0.999756 531.047 872)">des céréales </text></g><g clip-path="url(#clip32)"><text font-family="Calibri,Calibri_MSFontService,sans-serif" font-weight="400" font-size="37" direction="rtl" writing-mode="rl-tb" transform="matrix(1 0 0 0.999756 445.887 872)" x="70.8333">الغذاء</text></g><g clip-path="url(#clip33)"><text font-family="Calibri,Calibri_MSFontService,sans-serif" font-weight="700" font-size="37" transform="matrix(1 0 0 0.999756 37.1882 872)">le déjeuner </text></g><g clip-path="url(#clip34)"><text font-family="Calibri,Calibri_MSFontService,sans-serif" font-weight="400" font-size="37" direction="rtl" writing-mode="rl-tb" transform="matrix(1 0 0 0.999756 866.564 945)" x="120.333">محتويات </text></g><g clip-path="url(#clip35)"><text font-family="Calibri,Calibri_MSFontService,sans-serif" font-weight="400" font-size="37" direction="rtl" writing-mode="rl-tb" transform="matrix(1 0 0 0.999756 926.897 993)" x="60">الاكل</text></g><g clip-path="url(#clip36)"><text font-family="Calibri,Calibri_MSFontService,sans-serif" font-weight="700" font-size="37" transform="matrix(1 0 0 0.999756 531.047 969)">des ingrédients </text></g><g clip-path="url(#clip37)"><text font-family="Calibri,Calibri_MSFontService,sans-serif" font-weight="400" font-size="37" direction="rtl" writing-mode="rl-tb" transform="matrix(1 0 0 0.999756 418.387 969)" x="98.3333">التصبيره</text></g><g clip-path="url(#clip38)"><text font-family="Calibri,Calibri_MSFontService,sans-serif" font-weight="700" font-size="37" transform="matrix(1 0 0 0.999756 37.1882 969)">le goûter </text></g><g clip-path="url(#clip39)"><text font-family="Calibri,Calibri_MSFontService,sans-serif" font-weight="400" font-size="37" direction="rtl" writing-mode="rl-tb" transform="matrix(1 0 0 0.999756 937.897 1066)" x="49">باكو</text></g><g clip-path="url(#clip40)"><text font-family="Calibri,Calibri_MSFontService,sans-serif" font-weight="700" font-size="37" transform="matrix(1 0 0 0.999756 531.047 1066)">un paquet</text></g><g clip-path="url(#clip41)"><text font-family="Calibri,Calibri_MSFontService,sans-serif" font-weight="400" font-size="37" direction="rtl" writing-mode="rl-tb" transform="matrix(1 0 0 0.999756 437.387 1066)" x="79.3333">العشاء</text></g><g clip-path="url(#clip42)"><text font-family="Calibri,Calibri_MSFontService,sans-serif" font-weight="700" font-size="37" transform="matrix(1 0 0 0.999756 37.1882 1066)">le dîner </text></g><g clip-path="url(#clip43)"><text font-family="Calibri,Calibri_MSFontService,sans-serif" font-weight="400" font-size="37" direction="rtl" writing-mode="rl-tb" transform="matrix(1 0 0 0.999756 915.564 1163)" x="71.3333">عصير</text></g><g clip-path="url(#clip44)"><text font-family="Calibri,Calibri_MSFontService,sans-serif" font-weight="700" font-size="37" transform="matrix(1 0 0 0.999756 530.707 1163)">un jus</text></g><g clip-path="url(#clip45)"><text font-family="Calibri,Calibri_MSFontService,sans-serif" font-weight="400" font-size="37" direction="rtl" writing-mode="rl-tb" transform="matrix(1 0 0 0.999756 459.887 1163)" x="56.8333">طبق</text></g><g clip-path="url(#clip46)"><text font-family="Calibri,Calibri_MSFontService,sans-serif" font-weight="700" font-size="37" transform="matrix(1 0 0 0.999756 37.1882 1163)">un plat</text></g><g clip-path="url(#clip47)"><text font-family="Calibri,Calibri_MSFontService,sans-serif" font-weight="400" font-size="37" transform="matrix(1 0 0 0.999756 978.397 1260)"> </text></g><g clip-path="url(#clip48)"><text font-family="Calibri,Calibri_MSFontService,sans-serif" font-weight="700" font-size="37" transform="matrix(1 0 0 0.999756 531.041 1260)"> </text></g><g clip-path="url(#clip49)"><text font-family="Calibri,Calibri_MSFontService,sans-serif" font-weight="400" font-size="37" direction="rtl" writing-mode="rl-tb" transform="matrix(1 0 0 0.999756 350.721 1260)" x="166">السوبر ماركت</text></g><g clip-path="url(#clip50)"><text font-family="Calibri,Calibri_MSFontService,sans-serif" font-weight="700" font-size="37" transform="matrix(1 0 0 0.999756 37.1882 1260)">un supermarché </text></g><text font-family="Times New Roman,Times New Roman_MSFontService,sans-serif" font-weight="700" font-size="48" transform="matrix(1 0 0 0.999756 41.1 93)">Noms <tspan x="129.333" y="0">masculins </tspan></text><text font-family="Times New Roman,Times New Roman_MSFontService,sans-serif" font-weight="700" font-size="48" direction="rtl" writing-mode="rl-tb" transform="matrix(1 0 0 0.999756 385.093 93)" x="241.5">الأسماء المذكره</text></g></svg>