<svg width="1024" height="1365" xmlns="http://www.w3.org/2000/svg" xmlns:xlink="http://www.w3.org/1999/xlink" overflow="hidden"><defs><clipPath id="clip0"><rect x="0" y="0" width="1024" height="1365"/></clipPath><clipPath id="clip1"><rect x="800" y="42" width="181" height="413"/></clipPath><clipPath id="clip2"><rect x="516" y="42" width="285" height="413"/></clipPath><clipPath id="clip3"><rect x="285" y="42" width="232" height="413"/></clipPath><clipPath id="clip4"><rect x="53" y="42" width="233" height="413"/></clipPath><clipPath id="clip5"><rect x="800" y="282" width="181" height="413"/></clipPath><clipPath id="clip6"><rect x="516" y="282" width="285" height="413"/></clipPath><clipPath id="clip7"><rect x="285" y="282" width="232" height="413"/></clipPath><clipPath id="clip8"><rect x="53" y="282" width="233" height="413"/></clipPath><clipPath id="clip9"><rect x="800" y="522" width="181" height="413"/></clipPath><clipPath id="clip10"><rect x="516" y="522" width="285" height="413"/></clipPath><clipPath id="clip11"><rect x="285" y="522" width="232" height="413"/></clipPath><clipPath id="clip12"><rect x="53" y="522" width="233" height="413"/></clipPath><clipPath id="clip13"><rect x="800" y="761" width="181" height="413"/></clipPath><clipPath id="clip14"><rect x="516" y="761" width="285" height="413"/></clipPath><clipPath id="clip15"><rect x="285" y="761" width="232" height="413"/></clipPath><clipPath id="clip16"><rect x="53" y="761" width="233" height="413"/></clipPath><clipPath id="clip17"><rect x="800" y="1001" width="181" height="413"/></clipPath><clipPath id="clip18"><rect x="516" y="1001" width="285" height="413"/></clipPath><clipPath id="clip19"><rect x="285" y="1001" width="232" height="413"/></clipPath><clipPath id="clip20"><rect x="53" y="1001" width="233" height="413"/></clipPath></defs><g clip-path="url(#clip0)"><rect x="0" y="0" width="1024" height="1364.67" fill="#FFFFFF"/><text font-family="Times New Roman,Times New Roman_MSFontService,sans-serif" font-weight="700" font-size="59" transform="matrix(1 0 0 0.999756 39.7179 99)">Les fruits</text><text font-family="Arial,Arial_MSFontService,sans-serif" font-weight="700" font-size="59" direction="rtl" writing-mode="rl-tb" transform="matrix(1 0 0 0.999756 425.711 99)" x="32.6667">  <tspan x="-1.52588e-05" y="0">الفواكه </tspan></text><path d="M800 128.476 800 1328.14" stroke="#000000" stroke-width="1.33333" stroke-linejoin="round" stroke-miterlimit="10" fill="none" fill-rule="evenodd"/><path d="M516.952 128.476 516.952 1328.14" stroke="#000000" stroke-width="1.33333" stroke-linejoin="round" stroke-miterlimit="10" fill="none" fill-rule="evenodd"/><path d="M285.03 128.476 285.03 1328.14" stroke="#000000" stroke-width="1.33333" stroke-linejoin="round" stroke-miterlimit="10" fill="none" fill-rule="evenodd"/><path d="M52.3531 368.808 981.373 368.808" stroke="#000000" stroke-width="1.33333" stroke-linejoin="round" stroke-miterlimit="10" fill="none" fill-rule="evenodd"/><path d="M52.3531 608.475 981.373 608.475" stroke="#000000" stroke-width="1.33333" stroke-linejoin="round" stroke-miterlimit="10" fill="none" fill-rule="evenodd"/><path d="M52.3531 848.141 981.373 848.141" stroke="#000000" stroke-width="1.33333" stroke-linejoin="round" stroke-miterlimit="10" fill="none" fill-rule="evenodd"/><path d="M52.3531 1087.81 981.373 1087.81" stroke="#000000" stroke-width="1.33333" stroke-linejoin="round" stroke-miterlimit="10" fill="none" fill-rule="evenodd"/><path d="M980.706 128.476 980.706 1328.14" stroke="#000000" stroke-width="1.33333" stroke-linejoin="round" stroke-miterlimit="10" fill="none" fill-rule="evenodd"/><path d="M53.0197 128.476 53.0197 1328.14" stroke="#000000" stroke-width="1.33333" stroke-linejoin="round" stroke-miterlimit="10" fill="none" fill-rule="evenodd"/><path d="M52.3531 129.142 981.373 129.142" stroke="#000000" stroke-width="1.33333" stroke-linejoin="round" stroke-miterlimit="10" fill="none" fill-rule="evenodd"/><path d="M52.3531 1327.47 981.373 1327.47" stroke="#000000" stroke-width="1.33333" stroke-linejoin="round" stroke-miterlimit="10" fill="none" fill-rule="evenodd"/><g clip-path="url(#clip1)"><text font-family="Calibri,Calibri_MSFontService,sans-serif" font-weight="400" font-size="48" direction="rtl" writing-mode="rl-tb" transform="matrix(1 0 0 0.999756 860.221 265)" x="113.5">البرتقال</text></g><g clip-path="url(#clip2)"><text font-family="Calibri,Calibri_MSFontService,sans-serif" font-weight="700" font-size="48" transform="matrix(1 0 0 0.999756 524.179 265)">l'</text></g><text font-family="Calibri,Calibri_MSFontService,sans-serif" font-weight="700" font-size="48" transform="matrix(1 0 0 0.999756 547.179 265)">orange</text><g clip-path="url(#clip3)"><text font-family="Calibri,Calibri_MSFontService,sans-serif" font-weight="400" font-size="48" direction="rtl" writing-mode="rl-tb" transform="matrix(1 0 0 0.999756 413.251 265)" x="96.5">العنب</text></g><g clip-path="url(#clip4)"><text font-family="Calibri,Calibri_MSFontService,sans-serif" font-weight="700" font-size="48" transform="matrix(1 0 0 0.999756 60.2471 265)">le raisin</text></g><g clip-path="url(#clip5)"><text font-family="Calibri,Calibri_MSFontService,sans-serif" font-weight="400" font-size="48" direction="rtl" writing-mode="rl-tb" transform="matrix(1 0 0 0.999756 903.054 505)" x="70.6667">كرزه</text></g><g clip-path="url(#clip6)"><text font-family="Calibri,Calibri_MSFontService,sans-serif" font-weight="700" font-size="48" transform="matrix(1 0 0 0.999756 523.672 505)">la cerise</text></g><g clip-path="url(#clip7)"><text font-family="Calibri,Calibri_MSFontService,sans-serif" font-weight="400" font-size="48" direction="rtl" writing-mode="rl-tb" transform="matrix(1 0 0 0.999756 404.251 505)" x="105.5">الشمام</text></g><g clip-path="url(#clip8)"><text font-family="Calibri,Calibri_MSFontService,sans-serif" font-weight="700" font-size="48" transform="matrix(1 0 0 0.999756 60.2471 505)">le melon</text></g><g clip-path="url(#clip9)"><text font-family="Calibri,Calibri_MSFontService,sans-serif" font-weight="400" font-size="48" direction="rtl" writing-mode="rl-tb" transform="matrix(1 0 0 0.999756 868.054 745)" x="105.667">البطيخ</text></g><g clip-path="url(#clip10)"><text font-family="Calibri,Calibri_MSFontService,sans-serif" font-weight="700" font-size="48" transform="matrix(1 0 0 0.999756 524.179 745)">la pastèque </text></g><g clip-path="url(#clip11)"><text font-family="Calibri,Calibri_MSFontService,sans-serif" font-weight="400" font-size="48" direction="rtl" writing-mode="rl-tb" transform="matrix(1 0 0 0.999756 376.751 745)" x="133">الأناناس </text></g><g clip-path="url(#clip12)"><text font-family="Calibri,Calibri_MSFontService,sans-serif" font-weight="700" font-size="48" transform="matrix(1 0 0 0.999756 60.2471 745)">l'</text></g><text font-family="Calibri,Calibri_MSFontService,sans-serif" font-weight="700" font-size="48" transform="matrix(1 0 0 0.999756 83.2471 745)">ananas </text><g clip-path="url(#clip13)"><text font-family="Calibri,Calibri_MSFontService,sans-serif" font-weight="400" font-size="48" direction="rtl" writing-mode="rl-tb" transform="matrix(1 0 0 0.999756 882.054 984)" x="91.6667">التفاح</text></g><g clip-path="url(#clip14)"><text font-family="Calibri,Calibri_MSFontService,sans-serif" font-weight="700" font-size="48" transform="matrix(1 0 0 0.999756 524.179 984)">la pomme</text></g><g clip-path="url(#clip15)"><text font-family="Calibri,Calibri_MSFontService,sans-serif" font-weight="400" font-size="48" direction="rtl" writing-mode="rl-tb" transform="matrix(1 0 0 0.999756 384.584 984)" x="125.167">الفراولة </text></g><g clip-path="url(#clip16)"><text font-family="Calibri,Calibri_MSFontService,sans-serif" font-weight="700" font-size="48" transform="matrix(1 0 0 0.999756 60.2471 984)">la fraise</text></g><g clip-path="url(#clip17)"><text font-family="Calibri,Calibri_MSFontService,sans-serif" font-weight="400" font-size="48" direction="rtl" writing-mode="rl-tb" transform="matrix(1 0 0 0.999756 891.721 1224)" x="82">الموز</text></g><g clip-path="url(#clip18)"><text font-family="Calibri,Calibri_MSFontService,sans-serif" font-weight="700" font-size="48" transform="matrix(1 0 0 0.999756 524.179 1224)">la banane</text></g><g clip-path="url(#clip19)"><text font-family="Calibri,Calibri_MSFontService,sans-serif" font-weight="400" font-size="48" direction="rtl" writing-mode="rl-tb" transform="matrix(1 0 0 0.999756 391.417 1224)" x="118.333">الجوافه</text></g><g clip-path="url(#clip20)"><text font-family="Calibri,Calibri_MSFontService,sans-serif" font-weight="700" font-size="48" transform="matrix(1 0 0 0.999756 60.2471 1224)">la goyave</text></g></g></svg>