<svg width="1024" height="1365" xmlns="http://www.w3.org/2000/svg" xmlns:xlink="http://www.w3.org/1999/xlink" overflow="hidden"><defs><clipPath id="clip0"><rect x="0" y="0" width="1024" height="1365"/></clipPath><clipPath id="clip1"><rect x="738" y="-21" width="230" height="367"/></clipPath><clipPath id="clip2"><rect x="509" y="-21" width="230" height="367"/></clipPath><clipPath id="clip3"><rect x="280" y="-21" width="230" height="367"/></clipPath><clipPath id="clip4"><rect x="51" y="-21" width="230" height="367"/></clipPath><clipPath id="clip5"><rect x="738" y="79" width="230" height="367"/></clipPath><clipPath id="clip6"><rect x="509" y="79" width="230" height="367"/></clipPath><clipPath id="clip7"><rect x="280" y="79" width="230" height="367"/></clipPath><clipPath id="clip8"><rect x="51" y="79" width="230" height="367"/></clipPath><clipPath id="clip9"><rect x="738" y="178" width="230" height="368"/></clipPath><clipPath id="clip10"><rect x="509" y="178" width="230" height="368"/></clipPath><clipPath id="clip11"><rect x="280" y="178" width="230" height="368"/></clipPath><clipPath id="clip12"><rect x="51" y="178" width="230" height="368"/></clipPath><clipPath id="clip13"><rect x="738" y="278" width="230" height="367"/></clipPath><clipPath id="clip14"><rect x="509" y="278" width="230" height="367"/></clipPath><clipPath id="clip15"><rect x="280" y="278" width="230" height="367"/></clipPath><clipPath id="clip16"><rect x="51" y="278" width="230" height="367"/></clipPath><clipPath id="clip17"><rect x="738" y="378" width="230" height="367"/></clipPath><clipPath id="clip18"><rect x="509" y="378" width="230" height="367"/></clipPath><clipPath id="clip19"><rect x="280" y="378" width="230" height="367"/></clipPath><clipPath id="clip20"><rect x="51" y="378" width="230" height="367"/></clipPath><clipPath id="clip21"><rect x="738" y="478" width="230" height="367"/></clipPath><clipPath id="clip22"><rect x="509" y="478" width="230" height="367"/></clipPath><clipPath id="clip23"><rect x="280" y="478" width="230" height="367"/></clipPath><clipPath id="clip24"><rect x="51" y="478" width="230" height="367"/></clipPath><clipPath id="clip25"><rect x="738" y="577" width="230" height="368"/></clipPath><clipPath id="clip26"><rect x="509" y="577" width="230" height="368"/></clipPath><clipPath id="clip27"><rect x="280" y="577" width="230" height="368"/></clipPath><clipPath id="clip28"><rect x="51" y="577" width="230" height="368"/></clipPath><clipPath id="clip29"><rect x="51" y="577" width="230" height="368"/></clipPath><clipPath id="clip30"><rect x="738" y="677" width="230" height="368"/></clipPath><clipPath id="clip31"><rect x="509" y="677" width="230" height="368"/></clipPath><clipPath id="clip32"><rect x="280" y="677" width="230" height="368"/></clipPath><clipPath id="clip33"><rect x="51" y="677" width="230" height="368"/></clipPath><clipPath id="clip34"><rect x="738" y="776" width="230" height="368"/></clipPath><clipPath id="clip35"><rect x="509" y="776" width="230" height="368"/></clipPath><clipPath id="clip36"><rect x="280" y="776" width="230" height="368"/></clipPath><clipPath id="clip37"><rect x="51" y="776" width="230" height="368"/></clipPath><clipPath id="clip38"><rect x="51" y="776" width="230" height="368"/></clipPath><clipPath id="clip39"><rect x="738" y="879" width="230" height="368"/></clipPath><clipPath id="clip40"><rect x="509" y="879" width="230" height="368"/></clipPath><clipPath id="clip41"><rect x="280" y="879" width="230" height="368"/></clipPath><clipPath id="clip42"><rect x="51" y="688" width="230" height="750"/></clipPath><clipPath id="clip43"><rect x="51" y="688" width="230" height="750"/></clipPath><clipPath id="clip44"><rect x="738" y="994" width="230" height="367"/></clipPath><clipPath id="clip45"><rect x="280" y="994" width="230" height="367"/></clipPath><clipPath id="clip46"><rect x="51" y="994" width="230" height="367"/></clipPath><clipPath id="clip47"><rect x="738" y="1104" width="230" height="367"/></clipPath><clipPath id="clip48"><rect x="280" y="1104" width="230" height="367"/></clipPath><clipPath id="clip49"><rect x="51" y="1104" width="230" height="367"/></clipPath></defs><g clip-path="url(#clip0)"><rect x="0" y="0" width="1024" height="1364.67" fill="#FFFFFF"/><path d="M738.564 112.099 738.564 1338.61" stroke="#000000" stroke-width="1.33333" stroke-linejoin="round" stroke-miterlimit="10" fill="none" fill-rule="evenodd"/><path d="M509.245 112.099 509.245 1338.61" stroke="#000000" stroke-width="1.33333" stroke-linejoin="round" stroke-miterlimit="10" fill="none" fill-rule="evenodd"/><path d="M280.368 112.099 280.368 1338.61" stroke="#000000" stroke-width="1.33333" stroke-linejoin="round" stroke-miterlimit="10" fill="none" fill-rule="evenodd"/><path d="M50.4709 212.521 968.196 212.521" stroke="#000000" stroke-width="1.33333" stroke-linejoin="round" stroke-miterlimit="10" fill="none" fill-rule="evenodd"/><path d="M50.4709 312.276 968.196 312.276" stroke="#000000" stroke-width="1.33333" stroke-linejoin="round" stroke-miterlimit="10" fill="none" fill-rule="evenodd"/><path d="M50.4709 412.031 968.196 412.031" stroke="#000000" stroke-width="1.33333" stroke-linejoin="round" stroke-miterlimit="10" fill="none" fill-rule="evenodd"/><path d="M50.4709 511.787 968.196 511.787" stroke="#000000" stroke-width="1.33333" stroke-linejoin="round" stroke-miterlimit="10" fill="none" fill-rule="evenodd"/><path d="M50.4709 611.683 968.196 611.683" stroke="#000000" stroke-width="1.33333" stroke-linejoin="round" stroke-miterlimit="10" fill="none" fill-rule="evenodd"/><path d="M50.4709 711.438 968.196 711.438" stroke="#000000" stroke-width="1.33333" stroke-linejoin="round" stroke-miterlimit="10" fill="none" fill-rule="evenodd"/><path d="M50.4709 811.193 968.196 811.193" stroke="#000000" stroke-width="1.33333" stroke-linejoin="round" stroke-miterlimit="10" fill="none" fill-rule="evenodd"/><path d="M50.4709 910.949 968.196 910.949" stroke="#000000" stroke-width="1.33333" stroke-linejoin="round" stroke-miterlimit="10" fill="none" fill-rule="evenodd"/><path d="M50.4709 1009.64 968.196 1009.64" stroke="#000000" stroke-width="1.33333" stroke-linejoin="round" stroke-miterlimit="10" fill="none" fill-rule="evenodd"/><path d="M50.4709 1116.76 968.196 1116.76" stroke="#000000" stroke-width="1.33333" stroke-linejoin="round" stroke-miterlimit="10" fill="none" fill-rule="evenodd"/><path d="M50.4709 1238.19 968.196 1238.19" stroke="#000000" stroke-width="1.33333" stroke-linejoin="round" stroke-miterlimit="10" fill="none" fill-rule="evenodd"/><path d="M967.529 112.099 967.529 1338.61" stroke="#000000" stroke-width="1.33333" stroke-linejoin="round" stroke-miterlimit="10" fill="none" fill-rule="evenodd"/><path d="M51.1375 112.099 51.1375 1338.61" stroke="#000000" stroke-width="1.33333" stroke-linejoin="round" stroke-miterlimit="10" fill="none" fill-rule="evenodd"/><path d="M50.4709 112.766 968.196 112.766" stroke="#000000" stroke-width="1.33333" stroke-linejoin="round" stroke-miterlimit="10" fill="none" fill-rule="evenodd"/><path d="M50.4709 1337.95 968.196 1337.95" stroke="#000000" stroke-width="1.33333" stroke-linejoin="round" stroke-miterlimit="10" fill="none" fill-rule="evenodd"/><g clip-path="url(#clip1)"><text font-family="Calibri,Calibri_MSFontService,sans-serif" font-weight="400" font-size="43" direction="rtl" writing-mode="rl-tb" transform="matrix(1 0 0 0.999756 818.19 177)" x="142.167">البسكويت</text></g><g clip-path="url(#clip2)"><text font-family="Calibri,Calibri_MSFontService,sans-serif" font-weight="700" font-size="43" transform="matrix(1 0 0 0.999756 516.377 177)">le biscuit</text></g><g clip-path="url(#clip3)"><text font-family="Calibri,Calibri_MSFontService,sans-serif" font-weight="400" font-size="43" direction="rtl" writing-mode="rl-tb" transform="matrix(1 0 0 0.999756 413.827 177)" x="88.3333">الجبنه</text></g><g clip-path="url(#clip4)"><text font-family="Calibri,Calibri_MSFontService,sans-serif" font-weight="700" font-size="43" transform="matrix(1 0 0 0.999756 58.4364 177)">le fromage</text></g><g clip-path="url(#clip5)"><text font-family="Calibri,Calibri_MSFontService,sans-serif" font-weight="400" font-size="43" direction="rtl" writing-mode="rl-tb" transform="matrix(1 0 0 0.999756 801.357 277)" x="159">الشوكولاتة </text></g><g clip-path="url(#clip6)"><text font-family="Calibri,Calibri_MSFontService,sans-serif" font-weight="700" font-size="43" transform="matrix(1 0 0 0.999756 516.377 277)">le chocolat </text></g><g clip-path="url(#clip7)"><text font-family="Calibri,Calibri_MSFontService,sans-serif" font-weight="400" font-size="43" direction="rtl" writing-mode="rl-tb" transform="matrix(1 0 0 0.999756 423.827 277)" x="78.3333">الزبده</text></g><g clip-path="url(#clip8)"><text font-family="Calibri,Calibri_MSFontService,sans-serif" font-weight="700" font-size="43" transform="matrix(1 0 0 0.999756 58.4364 277)">le beurre</text></g><g clip-path="url(#clip9)"><text font-family="Calibri,Calibri_MSFontService,sans-serif" font-weight="400" font-size="43" direction="rtl" writing-mode="rl-tb" transform="matrix(1 0 0 0.999756 873.023 377)" x="87.3333">البيض</text></g><g clip-path="url(#clip10)"><text font-family="Calibri,Calibri_MSFontService,sans-serif" font-weight="700" font-size="43" transform="matrix(1 0 0 0.999756 516.377 377)">l'</text></g><text font-family="Calibri,Calibri_MSFontService,sans-serif" font-weight="700" font-size="43" transform="matrix(1 0 0 0.999756 536.877 377)">œuf /<tspan x="100.333" y="0">m</tspan></text><g clip-path="url(#clip11)"><text font-family="Calibri,Calibri_MSFontService,sans-serif" font-weight="400" font-size="43" direction="rtl" writing-mode="rl-tb" transform="matrix(1 0 0 0.999756 421.327 377)" x="80.8333">الفراخ</text></g><g clip-path="url(#clip12)"><text font-family="Calibri,Calibri_MSFontService,sans-serif" font-weight="700" font-size="43" transform="matrix(1 0 0 0.999756 58.4364 377)">le poulet</text></g><g clip-path="url(#clip13)"><text font-family="Calibri,Calibri_MSFontService,sans-serif" font-weight="400" font-size="43" direction="rtl" writing-mode="rl-tb" transform="matrix(1 0 0 0.999756 808.023 477)" x="152.333">لحم الفخذ</text></g><g clip-path="url(#clip14)"><text font-family="Calibri,Calibri_MSFontService,sans-serif" font-weight="700" font-size="43" transform="matrix(1 0 0 0.999756 516.377 477)">le jambon</text></g><g clip-path="url(#clip15)"><text font-family="Calibri,Calibri_MSFontService,sans-serif" font-weight="400" font-size="43" direction="rtl" writing-mode="rl-tb" transform="matrix(1 0 0 0.999756 403.661 477)" x="98.5">الزبادى</text></g><g clip-path="url(#clip16)"><text font-family="Calibri,Calibri_MSFontService,sans-serif" font-weight="700" font-size="43" transform="matrix(1 0 0 0.999756 58.4364 477)">le yaourt</text></g><g clip-path="url(#clip17)"><text font-family="Calibri,Calibri_MSFontService,sans-serif" font-weight="400" font-size="43" direction="rtl" writing-mode="rl-tb" transform="matrix(1 0 0 0.999756 859.523 576)" x="100.833">السُجق</text></g><g clip-path="url(#clip18)"><text font-family="Calibri,Calibri_MSFontService,sans-serif" font-weight="700" font-size="43" transform="matrix(1 0 0 0.999756 516.037 576)">le saucisson </text></g><g clip-path="url(#clip19)"><text font-family="Calibri,Calibri_MSFontService,sans-serif" font-weight="400" font-size="43" direction="rtl" writing-mode="rl-tb" transform="matrix(1 0 0 0.999756 436.994 576)" x="65.1667">الارز</text></g><g clip-path="url(#clip20)"><text font-family="Calibri,Calibri_MSFontService,sans-serif" font-weight="700" font-size="43" transform="matrix(1 0 0 0.999756 58.4364 576)">le riz</text></g><g clip-path="url(#clip21)"><text font-family="Calibri,Calibri_MSFontService,sans-serif" font-weight="400" font-size="43" direction="rtl" writing-mode="rl-tb" transform="matrix(1 0 0 0.999756 870.023 676)" x="90.3333">الارنب</text></g><g clip-path="url(#clip22)"><text font-family="Calibri,Calibri_MSFontService,sans-serif" font-weight="700" font-size="43" transform="matrix(1 0 0 0.999756 516.377 676)">le pain</text></g><g clip-path="url(#clip23)"><text font-family="Calibri,Calibri_MSFontService,sans-serif" font-weight="400" font-size="43" direction="rtl" writing-mode="rl-tb" transform="matrix(1 0 0 0.999756 403.327 676)" x="98.8333">السمك</text></g><g clip-path="url(#clip24)"><text font-family="Calibri,Calibri_MSFontService,sans-serif" font-weight="700" font-size="43" transform="matrix(1 0 0 0.999756 58.4364 676)">le poisson</text></g><g clip-path="url(#clip25)"><text font-family="Calibri,Calibri_MSFontService,sans-serif" font-weight="400" font-size="43" direction="rtl" writing-mode="rl-tb" transform="matrix(1 0 0 0.999756 864.357 776)" x="96">العدس</text></g><g clip-path="url(#clip26)"><text font-family="Calibri,Calibri_MSFontService,sans-serif" font-weight="700" font-size="43" transform="matrix(1 0 0 0.999756 516.377 776)">les lentilles </text></g><g clip-path="url(#clip27)"><text font-family="Calibri,Calibri_MSFontService,sans-serif" font-weight="400" font-size="43" direction="rtl" writing-mode="rl-tb" transform="matrix(1 0 0 0.999756 413.827 776)" x="88.3333">البصل</text></g><g clip-path="url(#clip28)"><text font-family="Calibri,Calibri_MSFontService,sans-serif" font-weight="700" font-size="43" transform="matrix(1 0 0 0.999756 58.4364 776)">l'</text></g><text font-family="Calibri,Calibri_MSFontService,sans-serif" font-weight="700" font-size="43" transform="matrix(1 0 0 0.999756 78.9364 776)">oignon / </text><g clip-path="url(#clip29)"><text font-family="Calibri,Calibri_MSFontService,sans-serif" font-weight="700" font-size="43" transform="matrix(1 0 0 0.999756 238.936 776)">m</text></g><g clip-path="url(#clip30)"><text font-family="Calibri,Calibri_MSFontService,sans-serif" font-weight="400" font-size="43" direction="rtl" writing-mode="rl-tb" transform="matrix(1 0 0 0.999756 879.857 876)" x="80.5">البيتزا </text></g><g clip-path="url(#clip31)"><text font-family="Calibri,Calibri_MSFontService,sans-serif" font-weight="700" font-size="43" transform="matrix(1 0 0 0.999756 516.377 876)">la pizza</text></g><g clip-path="url(#clip32)"><text font-family="Calibri,Calibri_MSFontService,sans-serif" font-weight="400" font-size="43" direction="rtl" writing-mode="rl-tb" transform="matrix(1 0 0 0.999756 408.494 876)" x="93.6667">اللحمه</text></g><g clip-path="url(#clip33)"><text font-family="Calibri,Calibri_MSFontService,sans-serif" font-weight="700" font-size="43" transform="matrix(1 0 0 0.999756 58.4364 876)">la viande</text></g><g clip-path="url(#clip34)"><text font-family="Calibri,Calibri_MSFontService,sans-serif" font-weight="400" font-size="43" direction="rtl" writing-mode="rl-tb" transform="matrix(1 0 0 0.999756 881.19 975)" x="79.1667">الجزر</text></g><g clip-path="url(#clip35)"><text font-family="Calibri,Calibri_MSFontService,sans-serif" font-weight="700" font-size="43" transform="matrix(1 0 0 0.999756 516.377 975)">la carotte</text></g><g clip-path="url(#clip36)"><text font-family="Calibri,Calibri_MSFontService,sans-serif" font-weight="400" font-size="43" direction="rtl" writing-mode="rl-tb" transform="matrix(1 0 0 0.999756 384.327 975)" x="117.833">المكرونه</text></g><g clip-path="url(#clip37)"><text font-family="Calibri,Calibri_MSFontService,sans-serif" font-weight="700" font-size="43" transform="matrix(1 0 0 0.999756 58.4364 975)">les pâtes / </text></g><g clip-path="url(#clip38)"><text font-family="Calibri,Calibri_MSFontService,sans-serif" font-weight="700" font-size="43" transform="matrix(1 0 0 0.999756 251.936 975)">f</text></g><g clip-path="url(#clip39)"><text font-family="Calibri,Calibri_MSFontService,sans-serif" font-weight="400" font-size="43" direction="rtl" writing-mode="rl-tb" transform="matrix(1 0 0 0.999756 876.023 1078)" x="84.3333">المربى</text></g><g clip-path="url(#clip40)"><text font-family="Calibri,Calibri_MSFontService,sans-serif" font-weight="700" font-size="43" transform="matrix(1 0 0 0.999756 516.377 1078)">la confiture </text></g><g clip-path="url(#clip41)"><text font-family="Calibri,Calibri_MSFontService,sans-serif" font-weight="400" font-size="43" direction="rtl" writing-mode="rl-tb" transform="matrix(1 0 0 0.999756 369.327 1078)" x="132.833">البطاطس</text></g><g clip-path="url(#clip42)"><text font-family="Calibri,Calibri_MSFontService,sans-serif" font-weight="700" font-size="43" transform="matrix(1 0 0 0.999756 58.4364 1050)">la pomme </text></g><g clip-path="url(#clip43)"><text font-family="Calibri,Calibri_MSFontService,sans-serif" font-weight="700" font-size="43" transform="matrix(1 0 0 0.999756 58.4364 1105)">de terre</text></g><g clip-path="url(#clip44)"><text font-family="Calibri,Calibri_MSFontService,sans-serif" font-weight="400" font-size="43" transform="matrix(1 0 0 0.999756 950.69 1192)"> </text></g><g clip-path="url(#clip45)"><text font-family="Calibri,Calibri_MSFontService,sans-serif" font-weight="400" font-size="43" direction="rtl" writing-mode="rl-tb" transform="matrix(1 0 0 0.999756 377.494 1192)" x="124.667">الجمبري </text></g><g clip-path="url(#clip46)"><text font-family="Calibri,Calibri_MSFontService,sans-serif" font-weight="700" font-size="43" transform="matrix(1 0 0 0.999756 58.4364 1192)">la crevette </text></g><g clip-path="url(#clip47)"><text font-family="Calibri,Calibri_MSFontService,sans-serif" font-weight="400" font-size="43" transform="matrix(1 0 0 0.999756 950.69 1303)"> </text></g><g clip-path="url(#clip48)"><text font-family="Calibri,Calibri_MSFontService,sans-serif" font-weight="400" font-size="43" direction="rtl" writing-mode="rl-tb" transform="matrix(1 0 0 0.999756 411.494 1303)" x="90.6667">العسل</text></g><g clip-path="url(#clip49)"><text font-family="Calibri,Calibri_MSFontService,sans-serif" font-weight="700" font-size="43" transform="matrix(1 0 0 0.999756 58.4364 1303)">le miel</text></g><text font-family="Times New Roman,Times New Roman_MSFontService,sans-serif" font-weight="700" font-size="37" transform="matrix(1 0 0 0.999756 47.5611 75)">Les aliments </text><text font-family="Times New Roman,Times New Roman_MSFontService,sans-serif" font-weight="700" font-size="37" direction="rtl" writing-mode="rl-tb" transform="matrix(1 0 0 0.999756 256.888 75)" x="94.3333">الاغذيه </text></g></svg>