<svg width="1024" height="1365" xmlns="http://www.w3.org/2000/svg" xmlns:xlink="http://www.w3.org/1999/xlink" overflow="hidden"><defs><clipPath id="clip0"><rect x="0" y="0" width="1024" height="1365"/></clipPath><clipPath id="clip1"><rect x="837" y="-115" width="166" height="751"/></clipPath><clipPath id="clip2"><rect x="837" y="-115" width="166" height="751"/></clipPath><clipPath id="clip3"><rect x="512" y="77" width="326" height="367"/></clipPath><clipPath id="clip4"><rect x="316" y="77" width="197" height="367"/></clipPath><clipPath id="clip5"><rect x="21" y="77" width="296" height="367"/></clipPath><clipPath id="clip6"><rect x="837" y="293" width="166" height="368"/></clipPath><clipPath id="clip7"><rect x="512" y="293" width="326" height="368"/></clipPath><clipPath id="clip8"><rect x="316" y="293" width="197" height="368"/></clipPath><clipPath id="clip9"><rect x="21" y="293" width="296" height="368"/></clipPath><clipPath id="clip10"><rect x="837" y="463" width="166" height="367"/></clipPath><clipPath id="clip11"><rect x="512" y="463" width="326" height="367"/></clipPath><clipPath id="clip12"><rect x="316" y="463" width="197" height="367"/></clipPath><clipPath id="clip13"><rect x="21" y="463" width="296" height="367"/></clipPath><clipPath id="clip14"><rect x="837" y="584" width="166" height="368"/></clipPath><clipPath id="clip15"><rect x="512" y="584" width="326" height="368"/></clipPath><clipPath id="clip16"><rect x="316" y="584" width="197" height="368"/></clipPath><clipPath id="clip17"><rect x="21" y="584" width="296" height="368"/></clipPath><clipPath id="clip18"><rect x="837" y="700" width="166" height="368"/></clipPath><clipPath id="clip19"><rect x="512" y="700" width="326" height="368"/></clipPath><clipPath id="clip20"><rect x="316" y="700" width="197" height="368"/></clipPath><clipPath id="clip21"><rect x="21" y="700" width="296" height="368"/></clipPath><clipPath id="clip22"><rect x="837" y="820" width="166" height="368"/></clipPath><clipPath id="clip23"><rect x="512" y="820" width="326" height="368"/></clipPath><clipPath id="clip24"><rect x="316" y="820" width="197" height="368"/></clipPath><clipPath id="clip25"><rect x="21" y="820" width="296" height="368"/></clipPath><clipPath id="clip26"><rect x="837" y="993" width="166" height="367"/></clipPath><clipPath id="clip27"><rect x="512" y="993" width="326" height="367"/></clipPath><clipPath id="clip28"><rect x="316" y="993" width="197" height="367"/></clipPath><clipPath id="clip29"><rect x="21" y="801" width="296" height="751"/></clipPath><clipPath id="clip30"><rect x="21" y="801" width="296" height="751"/></clipPath></defs><g clip-path="url(#clip0)"><rect x="0" y="0" width="1024" height="1364.67" fill="#FFFFFF"/><text font-family="Times New Roman,Times New Roman_MSFontService,sans-serif" font-weight="700" font-size="53" transform="matrix(1 0 0 0.999756 52.8942 94)">Noms<tspan x="143.833" y="0">féminins</tspan></text><text font-family="Arial,Arial_MSFontService,sans-serif" font-weight="700" font-size="53" direction="rtl" writing-mode="rl-tb" transform="matrix(1 0 0 0.999756 658.388 94)" x="74.1667">     الأسماء المؤنثه</text><path d="M837.647 151.767 837.647 1286" stroke="#000000" stroke-width="1.33333" stroke-linejoin="round" stroke-miterlimit="10" fill="none" fill-rule="evenodd"/><path d="M512.094 151.767 512.094 1286" stroke="#000000" stroke-width="1.33333" stroke-linejoin="round" stroke-miterlimit="10" fill="none" fill-rule="evenodd"/><path d="M316.235 151.767 316.235 1286" stroke="#000000" stroke-width="1.33333" stroke-linejoin="round" stroke-miterlimit="10" fill="none" fill-rule="evenodd"/><path d="M20.9803 369.002 1003.02 369.002" stroke="#000000" stroke-width="1.33333" stroke-linejoin="round" stroke-miterlimit="10" fill="none" fill-rule="evenodd"/><path d="M20.9803 585.571 1003.02 585.571" stroke="#000000" stroke-width="1.33333" stroke-linejoin="round" stroke-miterlimit="10" fill="none" fill-rule="evenodd"/><path d="M20.9803 707.32 1003.02 707.32" stroke="#000000" stroke-width="1.33333" stroke-linejoin="round" stroke-miterlimit="10" fill="none" fill-rule="evenodd"/><path d="M20.9803 829.07 1003.02 829.07" stroke="#000000" stroke-width="1.33333" stroke-linejoin="round" stroke-miterlimit="10" fill="none" fill-rule="evenodd"/><path d="M20.9803 939.406 1003.02 939.406" stroke="#000000" stroke-width="1.33333" stroke-linejoin="round" stroke-miterlimit="10" fill="none" fill-rule="evenodd"/><path d="M20.9803 1068.76 1003.02 1068.76" stroke="#000000" stroke-width="1.33333" stroke-linejoin="round" stroke-miterlimit="10" fill="none" fill-rule="evenodd"/><path d="M1002.35 151.767 1002.35 1286" stroke="#000000" stroke-width="1.33333" stroke-linejoin="round" stroke-miterlimit="10" fill="none" fill-rule="evenodd"/><path d="M21.6469 151.767 21.6469 1286" stroke="#000000" stroke-width="1.33333" stroke-linejoin="round" stroke-miterlimit="10" fill="none" fill-rule="evenodd"/><path d="M20.9803 152.433 1003.02 152.433" stroke="#000000" stroke-width="1.33333" stroke-linejoin="round" stroke-miterlimit="10" fill="none" fill-rule="evenodd"/><path d="M20.9803 1285.33 1003.02 1285.33" stroke="#000000" stroke-width="1.33333" stroke-linejoin="round" stroke-miterlimit="10" fill="none" fill-rule="evenodd"/><g clip-path="url(#clip1)"><text font-family="Calibri,Calibri_MSFontService,sans-serif" font-weight="400" font-size="43" direction="rtl" writing-mode="rl-tb" transform="matrix(1 0 0 0.999756 902.534 248)" x="92.8333">ملعقه </text></g><g clip-path="url(#clip2)"><text font-family="Calibri,Calibri_MSFontService,sans-serif" font-weight="400" font-size="43" direction="rtl" writing-mode="rl-tb" transform="matrix(1 0 0 0.999756 864.368 303)" x="131">ايس كريم</text></g><g clip-path="url(#clip3)"><text font-family="Calibri,Calibri_MSFontService,sans-serif" font-weight="700" font-size="43" transform="matrix(1 0 0 0.999756 518.821 275)">une boule</text></g><g clip-path="url(#clip4)"><text font-family="Calibri,Calibri_MSFontService,sans-serif" font-weight="400" font-size="43" direction="rtl" writing-mode="rl-tb" transform="matrix(1 0 0 0.999756 421.789 275)" x="83.1667">ملعقه</text></g><g clip-path="url(#clip5)"><text font-family="Calibri,Calibri_MSFontService,sans-serif" font-weight="700" font-size="43" transform="matrix(1 0 0 0.999756 28.3743 275)">une cuillère</text></g><g clip-path="url(#clip6)"><text font-family="Calibri,Calibri_MSFontService,sans-serif" font-weight="400" font-size="43" direction="rtl" writing-mode="rl-tb" transform="matrix(1 0 0 0.999756 919.868 492)" x="75.5">اعداد</text></g><g clip-path="url(#clip7)"><text font-family="Calibri,Calibri_MSFontService,sans-serif" font-weight="700" font-size="43" transform="matrix(1 0 0 0.999756 518.814 492)">une préparation </text></g><g clip-path="url(#clip8)"><text font-family="Calibri,Calibri_MSFontService,sans-serif" font-weight="400" font-size="43" direction="rtl" writing-mode="rl-tb" transform="matrix(1 0 0 0.999756 426.623 492)" x="78.3333">شوكه</text></g><g clip-path="url(#clip9)"><text font-family="Calibri,Calibri_MSFontService,sans-serif" font-weight="700" font-size="43" transform="matrix(1 0 0 0.999756 28.3743 492)">une fourchette </text></g><g clip-path="url(#clip10)"><text font-family="Calibri,Calibri_MSFontService,sans-serif" font-weight="400" font-size="43" direction="rtl" writing-mode="rl-tb" transform="matrix(1 0 0 0.999756 886.201 661)" x="109.167">مشروب</text></g><g clip-path="url(#clip11)"><text font-family="Calibri,Calibri_MSFontService,sans-serif" font-weight="700" font-size="43" transform="matrix(1 0 0 0.999756 518.821 661)">une boisson</text></g><g clip-path="url(#clip12)"><text font-family="Calibri,Calibri_MSFontService,sans-serif" font-weight="400" font-size="43" direction="rtl" writing-mode="rl-tb" transform="matrix(1 0 0 0.999756 413.789 661)" x="91.1667">زجاجه</text></g><g clip-path="url(#clip13)"><text font-family="Calibri,Calibri_MSFontService,sans-serif" font-weight="700" font-size="43" transform="matrix(1 0 0 0.999756 28.3743 661)">une bouteille</text></g><g clip-path="url(#clip14)"><text font-family="Calibri,Calibri_MSFontService,sans-serif" font-weight="400" font-size="43" direction="rtl" writing-mode="rl-tb" transform="matrix(1 0 0 0.999756 884.701 783)" x="110.667">احساس</text></g><g clip-path="url(#clip15)"><text font-family="Calibri,Calibri_MSFontService,sans-serif" font-weight="700" font-size="43" transform="matrix(1 0 0 0.999756 518.821 783)">une sensation</text></g><g clip-path="url(#clip16)"><text font-family="Calibri,Calibri_MSFontService,sans-serif" font-weight="400" font-size="43" direction="rtl" writing-mode="rl-tb" transform="matrix(1 0 0 0.999756 458.956 783)" x="46">فئه</text></g><g clip-path="url(#clip17)"><text font-family="Calibri,Calibri_MSFontService,sans-serif" font-weight="700" font-size="43" transform="matrix(1 0 0 0.999756 28.3743 783)">une catégorie </text></g><g clip-path="url(#clip18)"><text font-family="Calibri,Calibri_MSFontService,sans-serif" font-weight="400" font-size="43" direction="rtl" writing-mode="rl-tb" transform="matrix(1 0 0 0.999756 856.868 899)" x="138.5">وصفة اكل</text></g><g clip-path="url(#clip19)"><text font-family="Calibri,Calibri_MSFontService,sans-serif" font-weight="700" font-size="43" transform="matrix(1 0 0 0.999756 518.821 899)">une </text></g><text font-family="Calibri,Calibri_MSFontService,sans-serif" font-weight="700" font-size="43" transform="matrix(1 0 0 0.999756 595.654 899)">recette </text><g clip-path="url(#clip20)"><text font-family="Calibri,Calibri_MSFontService,sans-serif" font-weight="400" font-size="43" direction="rtl" writing-mode="rl-tb" transform="matrix(1 0 0 0.999756 360.623 899)" x="144.333">بيض مقلى</text></g><g clip-path="url(#clip21)"><text font-family="Calibri,Calibri_MSFontService,sans-serif" font-weight="700" font-size="43" transform="matrix(1 0 0 0.999756 28.3743 899)">une omelette </text></g><g clip-path="url(#clip22)"><text font-family="Calibri,Calibri_MSFontService,sans-serif" font-weight="400" font-size="43" direction="rtl" writing-mode="rl-tb" transform="matrix(1 0 0 0.999756 879.868 1019)" x="115.5">سكريات</text></g><g clip-path="url(#clip23)"><text font-family="Calibri,Calibri_MSFontService,sans-serif" font-weight="700" font-size="43" transform="matrix(1 0 0 0.999756 518.821 1019)">les friandises</text></g><g clip-path="url(#clip24)"><text font-family="Calibri,Calibri_MSFontService,sans-serif" font-weight="400" font-size="43" direction="rtl" writing-mode="rl-tb" transform="matrix(1 0 0 0.999756 416.956 1019)" x="88">فنجان</text></g><g clip-path="url(#clip25)"><text font-family="Calibri,Calibri_MSFontService,sans-serif" font-weight="700" font-size="43" transform="matrix(1 0 0 0.999756 28.3743 1019)">une tasse</text></g><g clip-path="url(#clip26)"><text font-family="Calibri,Calibri_MSFontService,sans-serif" font-weight="400" font-size="43" direction="rtl" writing-mode="rl-tb" transform="matrix(1 0 0 0.999756 910.201 1192)" x="85.1667">كمثرى</text></g><g clip-path="url(#clip27)"><text font-family="Calibri,Calibri_MSFontService,sans-serif" font-weight="700" font-size="43" transform="matrix(1 0 0 0.999756 518.821 1192)">une poire</text></g><g clip-path="url(#clip28)"><text font-family="Calibri,Calibri_MSFontService,sans-serif" font-weight="400" font-size="43" direction="rtl" writing-mode="rl-tb" transform="matrix(1 0 0 0.999756 383.289 1192)" x="121.667">باكو فانيل</text></g><text font-family="Calibri,Calibri_MSFontService,sans-serif" font-weight="400" font-size="43" direction="rtl" writing-mode="rl-tb" transform="matrix(1 0 0 0.999756 360.956 1192)" x="22.3333">يا</text><g clip-path="url(#clip29)"><text font-family="Calibri,Calibri_MSFontService,sans-serif" font-weight="700" font-size="43" transform="matrix(1 0 0 0.999756 28.3743 1164)">une gosse de </text></g><g clip-path="url(#clip30)"><text font-family="Calibri,Calibri_MSFontService,sans-serif" font-weight="700" font-size="43" transform="matrix(1 0 0 0.999756 28.3743 1219)">vanille</text></g></g></svg>