<svg width="1024" height="1365" xmlns="http://www.w3.org/2000/svg" xmlns:xlink="http://www.w3.org/1999/xlink" overflow="hidden"><defs><clipPath id="clip0"><rect x="0" y="0" width="1024" height="1365"/></clipPath><clipPath id="clip1"><rect x="816" y="55" width="182" height="367"/></clipPath><clipPath id="clip2"><rect x="523" y="55" width="294" height="367"/></clipPath><clipPath id="clip3"><rect x="286" y="55" width="238" height="367"/></clipPath><clipPath id="clip4"><rect x="286" y="55" width="238" height="367"/></clipPath><clipPath id="clip5"><rect x="48" y="55" width="239" height="367"/></clipPath><clipPath id="clip6"><rect x="816" y="201" width="182" height="368"/></clipPath><clipPath id="clip7"><rect x="523" y="201" width="294" height="368"/></clipPath><clipPath id="clip8"><rect x="286" y="201" width="238" height="368"/></clipPath><clipPath id="clip9"><rect x="48" y="201" width="239" height="368"/></clipPath><clipPath id="clip10"><rect x="816" y="348" width="182" height="367"/></clipPath><clipPath id="clip11"><rect x="523" y="348" width="294" height="367"/></clipPath><clipPath id="clip12"><rect x="286" y="348" width="238" height="367"/></clipPath><clipPath id="clip13"><rect x="48" y="348" width="239" height="367"/></clipPath><clipPath id="clip14"><rect x="816" y="494" width="182" height="368"/></clipPath><clipPath id="clip15"><rect x="523" y="494" width="294" height="368"/></clipPath><clipPath id="clip16"><rect x="286" y="494" width="238" height="368"/></clipPath><clipPath id="clip17"><rect x="48" y="494" width="239" height="368"/></clipPath><clipPath id="clip18"><rect x="816" y="641" width="182" height="367"/></clipPath><clipPath id="clip19"><rect x="523" y="641" width="294" height="367"/></clipPath><clipPath id="clip20"><rect x="286" y="641" width="238" height="367"/></clipPath><clipPath id="clip21"><rect x="48" y="641" width="239" height="367"/></clipPath><clipPath id="clip22"><rect x="816" y="788" width="182" height="367"/></clipPath><clipPath id="clip23"><rect x="523" y="788" width="294" height="367"/></clipPath><clipPath id="clip24"><rect x="286" y="788" width="238" height="367"/></clipPath><clipPath id="clip25"><rect x="48" y="788" width="239" height="367"/></clipPath><clipPath id="clip26"><rect x="816" y="934" width="182" height="367"/></clipPath><clipPath id="clip27"><rect x="523" y="934" width="294" height="367"/></clipPath><clipPath id="clip28"><rect x="286" y="934" width="238" height="367"/></clipPath><clipPath id="clip29"><rect x="48" y="742" width="239" height="751"/></clipPath><clipPath id="clip30"><rect x="48" y="742" width="239" height="751"/></clipPath><clipPath id="clip31"><rect x="48" y="742" width="239" height="751"/></clipPath><clipPath id="clip32"><rect x="816" y="1081" width="182" height="367"/></clipPath><clipPath id="clip33"><rect x="523" y="1081" width="294" height="367"/></clipPath><clipPath id="clip34"><rect x="286" y="889" width="238" height="751"/></clipPath><clipPath id="clip35"><rect x="286" y="889" width="238" height="751"/></clipPath><clipPath id="clip36"><rect x="48" y="1081" width="239" height="367"/></clipPath></defs><g clip-path="url(#clip0)"><rect x="0" y="0" width="1024" height="1364.67" fill="#FFFFFF"/><text font-family="Times New Roman,Times New Roman_MSFontService,sans-serif" font-weight="700" font-size="48" transform="matrix(1 0 0 0.999756 148.894 117)">Mots <tspan x="116" y="0">variés</tspan></text><text font-family="Arial,Arial_MSFontService,sans-serif" font-weight="700" font-size="48" direction="rtl" writing-mode="rl-tb" transform="matrix(1 0 0 0.999756 619.055 117)" x="26.6667">  كلمات متنوعه </text><path d="M816.941 164.326 816.941 1338.69" stroke="#000000" stroke-width="1.33333" stroke-linejoin="round" stroke-miterlimit="10" fill="none" fill-rule="evenodd"/><path d="M523.385 164.326 523.385 1338.69" stroke="#000000" stroke-width="1.33333" stroke-linejoin="round" stroke-miterlimit="10" fill="none" fill-rule="evenodd"/><path d="M286.209 164.326 286.209 1338.69" stroke="#000000" stroke-width="1.33333" stroke-linejoin="round" stroke-miterlimit="10" fill="none" fill-rule="evenodd"/><path d="M48.2753 311.622 998.314 311.622" stroke="#000000" stroke-width="1.33333" stroke-linejoin="round" stroke-miterlimit="10" fill="none" fill-rule="evenodd"/><path d="M48.2753 458.251 998.314 458.251" stroke="#000000" stroke-width="1.33333" stroke-linejoin="round" stroke-miterlimit="10" fill="none" fill-rule="evenodd"/><path d="M48.2753 604.88 998.314 604.88" stroke="#000000" stroke-width="1.33333" stroke-linejoin="round" stroke-miterlimit="10" fill="none" fill-rule="evenodd"/><path d="M48.2753 751.51 998.314 751.51" stroke="#000000" stroke-width="1.33333" stroke-linejoin="round" stroke-miterlimit="10" fill="none" fill-rule="evenodd"/><path d="M48.2753 898.139 998.314 898.139" stroke="#000000" stroke-width="1.33333" stroke-linejoin="round" stroke-miterlimit="10" fill="none" fill-rule="evenodd"/><path d="M48.2753 1044.77 998.314 1044.77" stroke="#000000" stroke-width="1.33333" stroke-linejoin="round" stroke-miterlimit="10" fill="none" fill-rule="evenodd"/><path d="M48.2753 1191.4 998.314 1191.4" stroke="#000000" stroke-width="1.33333" stroke-linejoin="round" stroke-miterlimit="10" fill="none" fill-rule="evenodd"/><path d="M997.647 164.326 997.647 1338.69" stroke="#000000" stroke-width="1.33333" stroke-linejoin="round" stroke-miterlimit="10" fill="none" fill-rule="evenodd"/><path d="M48.9419 164.326 48.9419 1338.69" stroke="#000000" stroke-width="1.33333" stroke-linejoin="round" stroke-miterlimit="10" fill="none" fill-rule="evenodd"/><path d="M48.2753 164.993 998.314 164.993" stroke="#000000" stroke-width="1.33333" stroke-linejoin="round" stroke-miterlimit="10" fill="none" fill-rule="evenodd"/><path d="M48.2753 1338.03 998.314 1338.03" stroke="#000000" stroke-width="1.33333" stroke-linejoin="round" stroke-miterlimit="10" fill="none" fill-rule="evenodd"/><g clip-path="url(#clip1)"><text font-family="Calibri,Calibri_MSFontService,sans-serif" font-weight="400" font-size="43" direction="rtl" writing-mode="rl-tb" transform="matrix(1 0 0 0.999756 886.329 253)" x="104.333">في اليوم</text></g><g clip-path="url(#clip2)"><text font-family="Calibri,Calibri_MSFontService,sans-serif" font-weight="700" font-size="43" transform="matrix(1 0 0 0.999756 530.113 253)">par jour</text></g><g clip-path="url(#clip3)"><text font-family="Calibri,Calibri_MSFontService,sans-serif" font-weight="400" font-size="43" direction="rtl" writing-mode="rl-tb" transform="matrix(1 0 0 0.999756 351.263 253)" x="165.667">متعلق بالحب</text></g><g clip-path="url(#clip4)"><text font-family="Calibri,Calibri_MSFontService,sans-serif" font-weight="400" font-size="43" direction="rtl" writing-mode="rl-tb" transform="matrix(1 0 0 0.999756 298.93 253)" x="52.3333">وب</text></g><g clip-path="url(#clip5)"><text font-family="Calibri,Calibri_MSFontService,sans-serif" font-weight="700" font-size="43" transform="matrix(1 0 0 0.999756 56.0027 253)">céréalier</text></g><g clip-path="url(#clip6)"><text font-family="Calibri,Calibri_MSFontService,sans-serif" font-weight="400" font-size="43" direction="rtl" writing-mode="rl-tb" transform="matrix(1 0 0 0.999756 869.495 400)" x="121.167">في الشهر</text></g><g clip-path="url(#clip7)"><text font-family="Calibri,Calibri_MSFontService,sans-serif" font-weight="700" font-size="43" transform="matrix(1 0 0 0.999756 530.113 400)">par mois</text></g><g clip-path="url(#clip8)"><text font-family="Calibri,Calibri_MSFontService,sans-serif" font-weight="400" font-size="43" direction="rtl" writing-mode="rl-tb" transform="matrix(1 0 0 0.999756 440.263 400)" x="76.6667">محلى</text></g><g clip-path="url(#clip9)"><text font-family="Calibri,Calibri_MSFontService,sans-serif" font-weight="700" font-size="43" transform="matrix(1 0 0 0.999756 56.0027 400)">sucré </text></g><g clip-path="url(#clip10)"><text font-family="Calibri,Calibri_MSFontService,sans-serif" font-weight="400" font-size="43" direction="rtl" writing-mode="rl-tb" transform="matrix(1 0 0 0.999756 887.829 546)" x="102.833">في العام</text></g><g clip-path="url(#clip11)"><text font-family="Calibri,Calibri_MSFontService,sans-serif" font-weight="700" font-size="43" transform="matrix(1 0 0 0.999756 530.113 546)">par an</text></g><g clip-path="url(#clip12)"><text font-family="Calibri,Calibri_MSFontService,sans-serif" font-weight="400" font-size="43" direction="rtl" writing-mode="rl-tb" transform="matrix(1 0 0 0.999756 444.763 546)" x="72.1667">مملح</text></g><g clip-path="url(#clip13)"><text font-family="Calibri,Calibri_MSFontService,sans-serif" font-weight="700" font-size="43" transform="matrix(1 0 0 0.999756 56.0027 546)">salé</text></g><g clip-path="url(#clip14)"><text font-family="Calibri,Calibri_MSFontService,sans-serif" font-weight="400" font-size="43" direction="rtl" writing-mode="rl-tb" transform="matrix(1 0 0 0.999756 931.829 693)" x="58.8333">جيد</text></g><g clip-path="url(#clip15)"><text font-family="Calibri,Calibri_MSFontService,sans-serif" font-weight="700" font-size="43" transform="matrix(1 0 0 0.999756 530.113 693)">bien</text></g><g clip-path="url(#clip16)"><text font-family="Calibri,Calibri_MSFontService,sans-serif" font-weight="400" font-size="43" direction="rtl" writing-mode="rl-tb" transform="matrix(1 0 0 0.999756 445.93 693)" x="71">دهنى</text></g><g clip-path="url(#clip17)"><text font-family="Calibri,Calibri_MSFontService,sans-serif" font-weight="700" font-size="43" transform="matrix(1 0 0 0.999756 56.0027 693)">gras /</text></g><text font-family="Calibri,Calibri_MSFontService,sans-serif" font-weight="700" font-size="43" transform="matrix(1 0 0 0.999756 157.336 693)">se</text><g clip-path="url(#clip18)"><text font-family="Calibri,Calibri_MSFontService,sans-serif" font-weight="400" font-size="43" direction="rtl" writing-mode="rl-tb" transform="matrix(1 0 0 0.999756 827.162 839)" x="163.5">في حاجه الى</text></g><g clip-path="url(#clip19)"><text font-family="Calibri,Calibri_MSFontService,sans-serif" font-weight="700" font-size="43" transform="matrix(1 0 0 0.999756 530.113 839)">avoir besoin de</text></g><g clip-path="url(#clip20)"><text font-family="Calibri,Calibri_MSFontService,sans-serif" font-weight="400" font-size="43" direction="rtl" writing-mode="rl-tb" transform="matrix(1 0 0 0.999756 435.263 839)" x="81.6667">ضخم</text></g><g clip-path="url(#clip21)"><text font-family="Calibri,Calibri_MSFontService,sans-serif" font-weight="700" font-size="43" transform="matrix(1 0 0 0.999756 56.0027 839)">énorme </text></g><g clip-path="url(#clip22)"><text font-family="Calibri,Calibri_MSFontService,sans-serif" font-weight="400" font-size="43" direction="rtl" writing-mode="rl-tb" transform="matrix(1 0 0 0.999756 831.829 986)" x="158.833">حرفى يدوى</text></g><g clip-path="url(#clip23)"><text font-family="Calibri,Calibri_MSFontService,sans-serif" font-weight="700" font-size="43" transform="matrix(1 0 0 0.999756 530.113 986)">artisanal</text></g><g clip-path="url(#clip24)"><text font-family="Calibri,Calibri_MSFontService,sans-serif" font-weight="400" font-size="43" direction="rtl" writing-mode="rl-tb" transform="matrix(1 0 0 0.999756 445.263 986)" x="71.6667">جاف</text></g><g clip-path="url(#clip25)"><text font-family="Calibri,Calibri_MSFontService,sans-serif" font-weight="700" font-size="43" transform="matrix(1 0 0 0.999756 56.0027 986)">sec/</text></g><text font-family="Calibri,Calibri_MSFontService,sans-serif" font-weight="700" font-size="43" transform="matrix(1 0 0 0.999756 130.669 986)">sèche</text><g clip-path="url(#clip26)"><text font-family="Calibri,Calibri_MSFontService,sans-serif" font-weight="400" font-size="43" direction="rtl" writing-mode="rl-tb" transform="matrix(1 0 0 0.999756 912.829 1133)" x="77.8333">غذائي</text></g><g clip-path="url(#clip27)"><text font-family="Calibri,Calibri_MSFontService,sans-serif" font-weight="700" font-size="43" transform="matrix(1 0 0 0.999756 530.113 1133)">alimentaire</text></g><g clip-path="url(#clip28)"><text font-family="Calibri,Calibri_MSFontService,sans-serif" font-weight="400" font-size="43" direction="rtl" writing-mode="rl-tb" transform="matrix(1 0 0 0.999756 454.763 1133)" x="62.1667">لذيذ</text></g><g clip-path="url(#clip29)"><text font-family="Calibri,Calibri_MSFontService,sans-serif" font-weight="700" font-size="43" transform="matrix(1 0 0 0.999756 56.0027 1105)">délicieux </text></g><g clip-path="url(#clip30)"><text font-family="Calibri,Calibri_MSFontService,sans-serif" font-weight="700" font-size="43" transform="matrix(1 0 0 0.999756 56.0027 1160)">/</text></g><g clip-path="url(#clip31)"><text font-family="Calibri,Calibri_MSFontService,sans-serif" font-weight="700" font-size="43" transform="matrix(1 0 0 0.999756 74.336 1160)">se</text></g><g clip-path="url(#clip32)"><text font-family="Calibri,Calibri_MSFontService,sans-serif" font-weight="400" font-size="43" direction="rtl" writing-mode="rl-tb" transform="matrix(1 0 0 0.999756 927.162 1279)" x="63.5">اخيراً</text></g><g clip-path="url(#clip33)"><text font-family="Calibri,Calibri_MSFontService,sans-serif" font-weight="700" font-size="43" transform="matrix(1 0 0 0.999756 530.113 1279)">finalement</text></g><g clip-path="url(#clip34)"><text font-family="Calibri,Calibri_MSFontService,sans-serif" font-weight="400" font-size="43" direction="rtl" writing-mode="rl-tb" transform="matrix(1 0 0 0.999756 382.93 1252)" x="134">ليس على </text></g><g clip-path="url(#clip35)"><text font-family="Calibri,Calibri_MSFontService,sans-serif" font-weight="400" font-size="43" direction="rtl" writing-mode="rl-tb" transform="matrix(1 0 0 0.999756 398.43 1307)" x="118.5">الإطلاق </text></g><g clip-path="url(#clip36)"><text font-family="Calibri,Calibri_MSFontService,sans-serif" font-weight="700" font-size="43" transform="matrix(1 0 0 0.999756 56.0027 1279)">pas du tout</text></g></g></svg>