<svg width="1024" height="1365" xmlns="http://www.w3.org/2000/svg" xmlns:xlink="http://www.w3.org/1999/xlink" overflow="hidden"><defs><clipPath id="clip0"><rect x="0" y="0" width="1024" height="1365"/></clipPath><clipPath id="clip1"><rect x="777" y="-4" width="195" height="368"/></clipPath><clipPath id="clip2"><rect x="512" y="-4" width="266" height="368"/></clipPath><clipPath id="clip3"><rect x="282" y="-4" width="231" height="368"/></clipPath><clipPath id="clip4"><rect x="52" y="-4" width="231" height="368"/></clipPath><clipPath id="clip5"><rect x="777" y="117" width="195" height="367"/></clipPath><clipPath id="clip6"><rect x="512" y="117" width="266" height="367"/></clipPath><clipPath id="clip7"><rect x="282" y="117" width="231" height="367"/></clipPath><clipPath id="clip8"><rect x="52" y="117" width="231" height="367"/></clipPath><clipPath id="clip9"><rect x="777" y="237" width="195" height="367"/></clipPath><clipPath id="clip10"><rect x="512" y="237" width="266" height="367"/></clipPath><clipPath id="clip11"><rect x="282" y="45" width="231" height="751"/></clipPath><clipPath id="clip12"><rect x="282" y="45" width="231" height="751"/></clipPath><clipPath id="clip13"><rect x="282" y="45" width="231" height="751"/></clipPath><clipPath id="clip14"><rect x="52" y="237" width="231" height="367"/></clipPath><clipPath id="clip15"><rect x="777" y="357" width="195" height="368"/></clipPath><clipPath id="clip16"><rect x="512" y="357" width="266" height="368"/></clipPath><clipPath id="clip17"><rect x="282" y="166" width="231" height="750"/></clipPath><clipPath id="clip18"><rect x="282" y="166" width="231" height="750"/></clipPath><clipPath id="clip19"><rect x="52" y="166" width="231" height="750"/></clipPath><clipPath id="clip20"><rect x="52" y="166" width="231" height="750"/></clipPath><clipPath id="clip21"><rect x="777" y="477" width="195" height="368"/></clipPath><clipPath id="clip22"><rect x="512" y="477" width="266" height="368"/></clipPath><clipPath id="clip23"><rect x="282" y="477" width="231" height="368"/></clipPath><clipPath id="clip24"><rect x="52" y="477" width="231" height="368"/></clipPath><clipPath id="clip25"><rect x="777" y="598" width="195" height="367"/></clipPath><clipPath id="clip26"><rect x="512" y="598" width="266" height="367"/></clipPath><clipPath id="clip27"><rect x="282" y="598" width="231" height="367"/></clipPath><clipPath id="clip28"><rect x="52" y="598" width="231" height="367"/></clipPath><clipPath id="clip29"><rect x="777" y="718" width="195" height="367"/></clipPath><clipPath id="clip30"><rect x="512" y="718" width="266" height="367"/></clipPath><clipPath id="clip31"><rect x="282" y="718" width="231" height="367"/></clipPath><clipPath id="clip32"><rect x="52" y="718" width="231" height="367"/></clipPath><clipPath id="clip33"><rect x="777" y="838" width="195" height="368"/></clipPath><clipPath id="clip34"><rect x="512" y="838" width="266" height="368"/></clipPath><clipPath id="clip35"><rect x="282" y="838" width="231" height="368"/></clipPath><clipPath id="clip36"><rect x="52" y="838" width="231" height="368"/></clipPath><clipPath id="clip37"><rect x="777" y="959" width="195" height="367"/></clipPath><clipPath id="clip38"><rect x="512" y="959" width="266" height="367"/></clipPath><clipPath id="clip39"><rect x="282" y="959" width="231" height="367"/></clipPath><clipPath id="clip40"><rect x="52" y="959" width="231" height="367"/></clipPath><clipPath id="clip41"><rect x="777" y="1079" width="195" height="367"/></clipPath><clipPath id="clip42"><rect x="512" y="1079" width="266" height="367"/></clipPath><clipPath id="clip43"><rect x="282" y="1079" width="231" height="367"/></clipPath><clipPath id="clip44"><rect x="52" y="1079" width="231" height="367"/></clipPath></defs><g clip-path="url(#clip0)"><rect x="0" y="0" width="1024" height="1364.67" fill="#FFFFFF"/><text font-family="Times New Roman,Times New Roman_MSFontService,sans-serif" font-weight="700" font-size="53" transform="matrix(1 0 0 0.999756 62.3058 88)">Verbes</text><text font-family="Arial,Arial_MSFontService,sans-serif" font-weight="700" font-size="53" direction="rtl" writing-mode="rl-tb" transform="matrix(1 0 0 0.999756 331.799 88)" x="14.8333"> الافعال</text><path d="M777.412 119.171 777.412 1323.75" stroke="#000000" stroke-width="1.33333" stroke-linejoin="round" stroke-miterlimit="10" fill="none" fill-rule="evenodd"/><path d="M512.088 119.171 512.088 1323.75" stroke="#000000" stroke-width="1.33333" stroke-linejoin="round" stroke-miterlimit="10" fill="none" fill-rule="evenodd"/><path d="M282.441 119.171 282.441 1323.75" stroke="#000000" stroke-width="1.33333" stroke-linejoin="round" stroke-miterlimit="10" fill="none" fill-rule="evenodd"/><path d="M52.0392 240.162 971.961 240.162" stroke="#000000" stroke-width="1.33333" stroke-linejoin="round" stroke-miterlimit="10" fill="none" fill-rule="evenodd"/><path d="M52.0392 360.487 971.961 360.487" stroke="#000000" stroke-width="1.33333" stroke-linejoin="round" stroke-miterlimit="10" fill="none" fill-rule="evenodd"/><path d="M52.0392 480.811 971.961 480.811" stroke="#000000" stroke-width="1.33333" stroke-linejoin="round" stroke-miterlimit="10" fill="none" fill-rule="evenodd"/><path d="M52.0392 601.136 971.961 601.136" stroke="#000000" stroke-width="1.33333" stroke-linejoin="round" stroke-miterlimit="10" fill="none" fill-rule="evenodd"/><path d="M52.0392 721.46 971.961 721.46" stroke="#000000" stroke-width="1.33333" stroke-linejoin="round" stroke-miterlimit="10" fill="none" fill-rule="evenodd"/><path d="M52.0392 841.785 971.961 841.785" stroke="#000000" stroke-width="1.33333" stroke-linejoin="round" stroke-miterlimit="10" fill="none" fill-rule="evenodd"/><path d="M52.0392 962.109 971.961 962.109" stroke="#000000" stroke-width="1.33333" stroke-linejoin="round" stroke-miterlimit="10" fill="none" fill-rule="evenodd"/><path d="M52.0392 1082.43 971.961 1082.43" stroke="#000000" stroke-width="1.33333" stroke-linejoin="round" stroke-miterlimit="10" fill="none" fill-rule="evenodd"/><path d="M52.0392 1202.76 971.961 1202.76" stroke="#000000" stroke-width="1.33333" stroke-linejoin="round" stroke-miterlimit="10" fill="none" fill-rule="evenodd"/><path d="M971.294 119.171 971.294 1323.75" stroke="#000000" stroke-width="1.33333" stroke-linejoin="round" stroke-miterlimit="10" fill="none" fill-rule="evenodd"/><path d="M52.7058 119.171 52.7058 1323.75" stroke="#000000" stroke-width="1.33333" stroke-linejoin="round" stroke-miterlimit="10" fill="none" fill-rule="evenodd"/><path d="M52.0392 119.838 971.961 119.838" stroke="#000000" stroke-width="1.33333" stroke-linejoin="round" stroke-miterlimit="10" fill="none" fill-rule="evenodd"/><path d="M52.0392 1323.08 971.961 1323.08" stroke="#000000" stroke-width="1.33333" stroke-linejoin="round" stroke-miterlimit="10" fill="none" fill-rule="evenodd"/><g clip-path="url(#clip1)"><text font-family="Calibri,Calibri_MSFontService,sans-serif" font-weight="400" font-size="43" direction="rtl" writing-mode="rl-tb" transform="matrix(1 0 0 0.999756 897.133 195)" x="67">يأخذ</text></g><g clip-path="url(#clip2)"><text font-family="Calibri,Calibri_MSFontService,sans-serif" font-weight="700" font-size="43" transform="matrix(1 0 0 0.999756 518.982 195)">prendre</text></g><g clip-path="url(#clip3)"><text font-family="Calibri,Calibri_MSFontService,sans-serif" font-weight="400" font-size="43" direction="rtl" writing-mode="rl-tb" transform="matrix(1 0 0 0.999756 422.995 195)" x="82.1667">يشرب</text></g><g clip-path="url(#clip4)"><text font-family="Calibri,Calibri_MSFontService,sans-serif" font-weight="700" font-size="43" transform="matrix(1 0 0 0.999756 59.2666 195)">boire</text></g><g clip-path="url(#clip5)"><text font-family="Calibri,Calibri_MSFontService,sans-serif" font-weight="400" font-size="43" direction="rtl" writing-mode="rl-tb" transform="matrix(1 0 0 0.999756 873.966 315)" x="90.1667">يشترى</text></g><g clip-path="url(#clip6)"><text font-family="Calibri,Calibri_MSFontService,sans-serif" font-weight="700" font-size="43" transform="matrix(1 0 0 0.999756 518.982 315)">acheter</text></g><g clip-path="url(#clip7)"><text font-family="Calibri,Calibri_MSFontService,sans-serif" font-weight="400" font-size="43" direction="rtl" writing-mode="rl-tb" transform="matrix(1 0 0 0.999756 446.162 315)" x="59">يأكل</text></g><g clip-path="url(#clip8)"><text font-family="Calibri,Calibri_MSFontService,sans-serif" font-weight="700" font-size="43" transform="matrix(1 0 0 0.999756 59.2666 315)">manger</text></g><g clip-path="url(#clip9)"><text font-family="Calibri,Calibri_MSFontService,sans-serif" font-weight="400" font-size="43" direction="rtl" writing-mode="rl-tb" transform="matrix(1 0 0 0.999756 890.133 435)" x="74">يرافق</text></g><g clip-path="url(#clip10)"><text font-family="Calibri,Calibri_MSFontService,sans-serif" font-weight="700" font-size="43" transform="matrix(1 0 0 0.999756 518.982 435)">accompagner</text></g><g clip-path="url(#clip11)"><text font-family="Calibri,Calibri_MSFontService,sans-serif" font-weight="400" font-size="43" direction="rtl" writing-mode="rl-tb" transform="matrix(1 0 0 0.999756 408.995 408)" x="96.1667">يتذوق </text></g><text font-family="Calibri,Calibri_MSFontService,sans-serif" font-weight="400" font-size="43" direction="rtl" writing-mode="rl-tb" transform="matrix(1 0 0 0.999756 373.162 408)" x="35.8333">/  يتن</text><g clip-path="url(#clip12)"><text font-family="Calibri,Calibri_MSFontService,sans-serif" font-weight="400" font-size="43" direction="rtl" writing-mode="rl-tb" transform="matrix(1 0 0 0.999756 279.495 408)" x="59.1667">اول </text></g><g clip-path="url(#clip13)"><text font-family="Calibri,Calibri_MSFontService,sans-serif" font-weight="400" font-size="43" direction="rtl" writing-mode="rl-tb" transform="matrix(1 0 0 0.999756 392.828 463)" x="112.333">التصبيره</text></g><g clip-path="url(#clip14)"><text font-family="Calibri,Calibri_MSFontService,sans-serif" font-weight="700" font-size="43" transform="matrix(1 0 0 0.999756 59.2666 435)">goûter </text></g><g clip-path="url(#clip15)"><text font-family="Calibri,Calibri_MSFontService,sans-serif" font-weight="400" font-size="43" direction="rtl" writing-mode="rl-tb" transform="matrix(1 0 0 0.999756 866.633 556)" x="97.5">جوعان</text></g><g clip-path="url(#clip16)"><text font-family="Calibri,Calibri_MSFontService,sans-serif" font-weight="700" font-size="43" transform="matrix(1 0 0 0.999756 518.982 556)">avoir faim</text></g><g clip-path="url(#clip17)"><text font-family="Calibri,Calibri_MSFontService,sans-serif" font-weight="400" font-size="43" direction="rtl" writing-mode="rl-tb" transform="matrix(1 0 0 0.999756 430.828 528)" x="74.3333">يقوم </text></g><g clip-path="url(#clip18)"><text font-family="Calibri,Calibri_MSFontService,sans-serif" font-weight="400" font-size="43" direction="rtl" writing-mode="rl-tb" transform="matrix(1 0 0 0.999756 342.995 583)" x="162.167">بالمشتروات</text></g><g clip-path="url(#clip19)"><text font-family="Calibri,Calibri_MSFontService,sans-serif" font-weight="700" font-size="43" transform="matrix(1 0 0 0.999756 59.2666 528)">faire des </text></g><g clip-path="url(#clip20)"><text font-family="Calibri,Calibri_MSFontService,sans-serif" font-weight="700" font-size="43" transform="matrix(1 0 0 0.999756 59.2666 583)">courses</text></g><g clip-path="url(#clip21)"><text font-family="Calibri,Calibri_MSFontService,sans-serif" font-weight="400" font-size="43" direction="rtl" writing-mode="rl-tb" transform="matrix(1 0 0 0.999756 854.966 676)" x="109.167">عطشان</text></g><g clip-path="url(#clip22)"><text font-family="Calibri,Calibri_MSFontService,sans-serif" font-weight="700" font-size="43" transform="matrix(1 0 0 0.999756 518.982 676)">avoir soif</text></g><g clip-path="url(#clip23)"><text font-family="Calibri,Calibri_MSFontService,sans-serif" font-weight="400" font-size="43" direction="rtl" writing-mode="rl-tb" transform="matrix(1 0 0 0.999756 338.162 676)" x="167">يطلب يسأل</text></g><g clip-path="url(#clip24)"><text font-family="Calibri,Calibri_MSFontService,sans-serif" font-weight="700" font-size="43" transform="matrix(1 0 0 0.999756 59.2666 676)">demander</text></g><g clip-path="url(#clip25)"><text font-family="Calibri,Calibri_MSFontService,sans-serif" font-weight="400" font-size="43" direction="rtl" writing-mode="rl-tb" transform="matrix(1 0 0 0.999756 893.966 796)" x="70.1667">حران</text></g><g clip-path="url(#clip26)"><text font-family="Calibri,Calibri_MSFontService,sans-serif" font-weight="700" font-size="43" transform="matrix(1 0 0 0.999756 518.982 796)">avoir chaud</text></g><g clip-path="url(#clip27)"><text font-family="Calibri,Calibri_MSFontService,sans-serif" font-weight="400" font-size="43" direction="rtl" writing-mode="rl-tb" transform="matrix(1 0 0 0.999756 429.662 796)" x="75.5">يكلف</text></g><g clip-path="url(#clip28)"><text font-family="Calibri,Calibri_MSFontService,sans-serif" font-weight="700" font-size="43" transform="matrix(1 0 0 0.999756 59.2666 796)">coûter</text></g><g clip-path="url(#clip29)"><text font-family="Calibri,Calibri_MSFontService,sans-serif" font-weight="400" font-size="43" direction="rtl" writing-mode="rl-tb" transform="matrix(1 0 0 0.999756 891.299 917)" x="72.8333">بردان</text></g><g clip-path="url(#clip30)"><text font-family="Calibri,Calibri_MSFontService,sans-serif" font-weight="700" font-size="43" transform="matrix(1 0 0 0.999756 518.982 917)">avoir froid</text></g><g clip-path="url(#clip31)"><text font-family="Calibri,Calibri_MSFontService,sans-serif" font-weight="400" font-size="43" direction="rtl" writing-mode="rl-tb" transform="matrix(1 0 0 0.999756 448.995 917)" x="56.1667">يريد</text></g><g clip-path="url(#clip32)"><text font-family="Calibri,Calibri_MSFontService,sans-serif" font-weight="700" font-size="43" transform="matrix(1 0 0 0.999756 59.2666 917)">vouloir</text></g><g clip-path="url(#clip33)"><text font-family="Calibri,Calibri_MSFontService,sans-serif" font-weight="400" font-size="43" direction="rtl" writing-mode="rl-tb" transform="matrix(1 0 0 0.999756 828.633 1037)" x="135.5">خائف من</text></g><g clip-path="url(#clip34)"><text font-family="Calibri,Calibri_MSFontService,sans-serif" font-weight="700" font-size="43" transform="matrix(1 0 0 0.999756 518.982 1037)">avoir peur de</text></g><g clip-path="url(#clip35)"><text font-family="Calibri,Calibri_MSFontService,sans-serif" font-weight="400" font-size="43" direction="rtl" writing-mode="rl-tb" transform="matrix(1 0 0 0.999756 429.162 1037)" x="76">يقطع</text></g><g clip-path="url(#clip36)"><text font-family="Calibri,Calibri_MSFontService,sans-serif" font-weight="700" font-size="43" transform="matrix(1 0 0 0.999756 59.2666 1037)">couper</text></g><g clip-path="url(#clip37)"><text font-family="Calibri,Calibri_MSFontService,sans-serif" font-weight="400" font-size="43" direction="rtl" writing-mode="rl-tb" transform="matrix(1 0 0 0.999756 903.633 1157)" x="60.5">يرفع</text></g><g clip-path="url(#clip38)"><text font-family="Calibri,Calibri_MSFontService,sans-serif" font-weight="700" font-size="43" transform="matrix(1 0 0 0.999756 518.982 1157)">lever</text></g><g clip-path="url(#clip39)"><text font-family="Calibri,Calibri_MSFontService,sans-serif" font-weight="400" font-size="43" direction="rtl" writing-mode="rl-tb" transform="matrix(1 0 0 0.999756 421.828 1157)" x="83.3333">يغسل</text></g><g clip-path="url(#clip40)"><text font-family="Calibri,Calibri_MSFontService,sans-serif" font-weight="700" font-size="43" transform="matrix(1 0 0 0.999756 59.2666 1157)">laver</text></g><g clip-path="url(#clip41)"><text font-family="Calibri,Calibri_MSFontService,sans-serif" font-weight="400" font-size="43" direction="rtl" writing-mode="rl-tb" transform="matrix(1 0 0 0.999756 886.133 1277)" x="78">يحترم</text></g><g clip-path="url(#clip42)"><text font-family="Calibri,Calibri_MSFontService,sans-serif" font-weight="700" font-size="43" transform="matrix(1 0 0 0.999756 518.982 1277)">respecter</text></g><g clip-path="url(#clip43)"><text font-family="Calibri,Calibri_MSFontService,sans-serif" font-weight="400" font-size="43" direction="rtl" writing-mode="rl-tb" transform="matrix(1 0 0 0.999756 425.995 1277)" x="79.1667">يعرف</text></g><g clip-path="url(#clip44)"><text font-family="Calibri,Calibri_MSFontService,sans-serif" font-weight="700" font-size="43" transform="matrix(1 0 0 0.999756 59.2666 1277)">connaître </text></g></g></svg>