<svg width="1024" height="1365" xmlns="http://www.w3.org/2000/svg" xmlns:xlink="http://www.w3.org/1999/xlink" overflow="hidden"><defs><clipPath id="clip0"><rect x="0" y="0" width="1024" height="1365"/></clipPath><clipPath id="clip1"><rect x="813" y="76" width="149" height="413"/></clipPath><clipPath id="clip2"><rect x="507" y="76" width="307" height="413"/></clipPath><clipPath id="clip3"><rect x="279" y="76" width="229" height="413"/></clipPath><clipPath id="clip4"><rect x="39" y="76" width="241" height="413"/></clipPath><clipPath id="clip5"><rect x="813" y="308" width="149" height="413"/></clipPath><clipPath id="clip6"><rect x="507" y="308" width="307" height="413"/></clipPath><clipPath id="clip7"><rect x="279" y="308" width="229" height="413"/></clipPath><clipPath id="clip8"><rect x="39" y="308" width="241" height="413"/></clipPath><clipPath id="clip9"><rect x="813" y="323" width="149" height="845"/></clipPath><clipPath id="clip10"><rect x="813" y="323" width="149" height="845"/></clipPath><clipPath id="clip11"><rect x="507" y="539" width="307" height="413"/></clipPath><clipPath id="clip12"><rect x="279" y="539" width="229" height="413"/></clipPath><clipPath id="clip13"><rect x="39" y="539" width="241" height="413"/></clipPath><clipPath id="clip14"><rect x="813" y="771" width="149" height="413"/></clipPath><clipPath id="clip15"><rect x="507" y="771" width="307" height="413"/></clipPath><clipPath id="clip16"><rect x="279" y="771" width="229" height="413"/></clipPath><clipPath id="clip17"><rect x="39" y="771" width="241" height="413"/></clipPath><clipPath id="clip18"><rect x="813" y="1002" width="149" height="413"/></clipPath><clipPath id="clip19"><rect x="507" y="1002" width="307" height="413"/></clipPath><clipPath id="clip20"><rect x="279" y="1002" width="229" height="413"/></clipPath><clipPath id="clip21"><rect x="39" y="1002" width="241" height="413"/></clipPath></defs><g clip-path="url(#clip0)"><rect x="0" y="0" width="1024" height="1364.67" fill="#FFFFFF"/><text font-family="Times New Roman,Times New Roman_MSFontService,sans-serif" font-weight="700" font-size="53" transform="matrix(1 0 0 0.999756 59.972 113)">Les Boissons </text><text font-family="Arial,Arial_MSFontService,sans-serif" font-weight="700" font-size="53" direction="rtl" writing-mode="rl-tb" transform="matrix(1 0 0 0.999756 362.465 113)" x="187.333">المشروبات</text><path d="M813.176 166.114 813.176 1325.52" stroke="#000000" stroke-width="1.33333" stroke-linejoin="round" stroke-miterlimit="10" fill="none" fill-rule="evenodd"/><path d="M507.124 166.114 507.124 1325.52" stroke="#000000" stroke-width="1.33333" stroke-linejoin="round" stroke-miterlimit="10" fill="none" fill-rule="evenodd"/><path d="M279.7 166.114 279.7 1325.52" stroke="#000000" stroke-width="1.33333" stroke-linejoin="round" stroke-miterlimit="10" fill="none" fill-rule="evenodd"/><path d="M39.1765 398.395 962.549 398.395" stroke="#000000" stroke-width="1.33333" stroke-linejoin="round" stroke-miterlimit="10" fill="none" fill-rule="evenodd"/><path d="M39.1765 630.009 962.549 630.009" stroke="#000000" stroke-width="1.33333" stroke-linejoin="round" stroke-miterlimit="10" fill="none" fill-rule="evenodd"/><path d="M39.1765 861.624 962.549 861.624" stroke="#000000" stroke-width="1.33333" stroke-linejoin="round" stroke-miterlimit="10" fill="none" fill-rule="evenodd"/><path d="M39.1765 1093.24 962.549 1093.24" stroke="#000000" stroke-width="1.33333" stroke-linejoin="round" stroke-miterlimit="10" fill="none" fill-rule="evenodd"/><path d="M961.882 166.114 961.882 1325.52" stroke="#000000" stroke-width="1.33333" stroke-linejoin="round" stroke-miterlimit="10" fill="none" fill-rule="evenodd"/><path d="M39.8432 166.114 39.8432 1325.52" stroke="#000000" stroke-width="1.33333" stroke-linejoin="round" stroke-miterlimit="10" fill="none" fill-rule="evenodd"/><path d="M39.1765 166.78 962.549 166.78" stroke="#000000" stroke-width="1.33333" stroke-linejoin="round" stroke-miterlimit="10" fill="none" fill-rule="evenodd"/><path d="M39.1765 1324.85 962.549 1324.85" stroke="#000000" stroke-width="1.33333" stroke-linejoin="round" stroke-miterlimit="10" fill="none" fill-rule="evenodd"/><g clip-path="url(#clip1)"><text font-family="Calibri,Calibri_MSFontService,sans-serif" font-weight="700" font-size="48" direction="rtl" writing-mode="rl-tb" transform="matrix(1 0 0 0.999756 856.731 299)" x="98.1667">الشاى</text></g><g clip-path="url(#clip2)"><text font-family="Calibri,Calibri_MSFontService,sans-serif" font-weight="700" font-size="48" transform="matrix(1 0 0 0.999756 514.351 299)">le thé</text></g><g clip-path="url(#clip3)"><text font-family="Calibri,Calibri_MSFontService,sans-serif" font-weight="700" font-size="48" direction="rtl" writing-mode="rl-tb" transform="matrix(1 0 0 0.999756 411.588 299)" x="88.8333">صودا</text></g><g clip-path="url(#clip4)"><text font-family="Calibri,Calibri_MSFontService,sans-serif" font-weight="700" font-size="48" transform="matrix(1 0 0 0.999756 46.2372 299)">le soda</text></g><g clip-path="url(#clip5)"><text font-family="Calibri,Calibri_MSFontService,sans-serif" font-weight="700" font-size="48" direction="rtl" writing-mode="rl-tb" transform="matrix(1 0 0 0.999756 862.564 531)" x="92.3333">شراب</text></g><g clip-path="url(#clip6)"><text font-family="Calibri,Calibri_MSFontService,sans-serif" font-weight="700" font-size="48" transform="matrix(1 0 0 0.999756 514.351 531)">le sirop</text></g><g clip-path="url(#clip7)"><text font-family="Calibri,Calibri_MSFontService,sans-serif" font-weight="700" font-size="48" direction="rtl" writing-mode="rl-tb" transform="matrix(1 0 0 0.999756 388.421 531)" x="112">القهوة </text></g><g clip-path="url(#clip8)"><text font-family="Calibri,Calibri_MSFontService,sans-serif" font-weight="700" font-size="48" transform="matrix(1 0 0 0.999756 46.2372 531)">le café </text></g><g clip-path="url(#clip9)"><text font-family="Calibri,Calibri_MSFontService,sans-serif" font-weight="700" font-size="48" direction="rtl" writing-mode="rl-tb" transform="matrix(1 0 0 0.999756 852.564 731)" x="102.333">عصير </text></g><g clip-path="url(#clip10)"><text font-family="Calibri,Calibri_MSFontService,sans-serif" font-weight="700" font-size="48" direction="rtl" writing-mode="rl-tb" transform="matrix(1 0 0 0.999756 864.897 793)" x="90">فواكه</text></g><g clip-path="url(#clip11)"><text font-family="Calibri,Calibri_MSFontService,sans-serif" font-weight="700" font-size="48" transform="matrix(1 0 0 0.999756 514.351 762)">le jus de fruits </text></g><g clip-path="url(#clip12)"><text font-family="Calibri,Calibri_MSFontService,sans-serif" font-weight="700" font-size="48" direction="rtl" writing-mode="rl-tb" transform="matrix(1 0 0 0.999756 427.254 762)" x="73.1667">اللبن</text></g><g clip-path="url(#clip13)"><text font-family="Calibri,Calibri_MSFontService,sans-serif" font-weight="700" font-size="48" transform="matrix(1 0 0 0.999756 46.2372 762)">le lait</text></g><g clip-path="url(#clip14)"><text font-family="Calibri,Calibri_MSFontService,sans-serif" font-weight="700" font-size="48" direction="rtl" writing-mode="rl-tb" transform="matrix(1 0 0 0.999756 858.231 994)" x="96.6667">التوت</text></g><g clip-path="url(#clip15)"><text font-family="Calibri,Calibri_MSFontService,sans-serif" font-weight="700" font-size="48" transform="matrix(1 0 0 0.999756 514.351 994)">la framboise </text></g><g clip-path="url(#clip16)"><text font-family="Calibri,Calibri_MSFontService,sans-serif" font-weight="700" font-size="48" direction="rtl" writing-mode="rl-tb" transform="matrix(1 0 0 0.999756 428.421 994)" x="72">الماء</text></g><g clip-path="url(#clip17)"><text font-family="Calibri,Calibri_MSFontService,sans-serif" font-weight="700" font-size="48" transform="matrix(1 0 0 0.999756 46.2372 994)">l'</text></g><text font-family="Calibri,Calibri_MSFontService,sans-serif" font-weight="700" font-size="48" transform="matrix(1 0 0 0.999756 69.2372 994)">eau</text><g clip-path="url(#clip18)"><text font-family="Calibri,Calibri_MSFontService,sans-serif" font-weight="700" font-size="48" transform="matrix(1 0 0 0.999756 819.731 1225)"> </text></g><g clip-path="url(#clip19)"><text font-family="Calibri,Calibri_MSFontService,sans-serif" font-weight="700" font-size="48" transform="matrix(1 0 0 0.999756 514.344 1225)"> </text></g><g clip-path="url(#clip20)"><text font-family="Calibri,Calibri_MSFontService,sans-serif" font-weight="700" font-size="48" direction="rtl" writing-mode="rl-tb" transform="matrix(1 0 0 0.999756 407.421 1225)" x="93">الزيت</text></g><g clip-path="url(#clip21)"><text font-family="Calibri,Calibri_MSFontService,sans-serif" font-weight="700" font-size="48" transform="matrix(1 0 0 0.999756 46.2372 1225)">l'</text></g><text font-family="Calibri,Calibri_MSFontService,sans-serif" font-weight="700" font-size="48" transform="matrix(1 0 0 0.999756 69.2372 1225)">huile </text></g></svg>